<?xml version="1.0" encoding="utf-8"?>
<!-- Generator: Adobe Illustrator 19.2.1, SVG Export Plug-In . SVG Version: 6.00 Build 0)  -->
<svg version="1.1" id="Layer_1" xmlns="http://www.w3.org/2000/svg" xmlns:xlink="http://www.w3.org/1999/xlink" x="0px" y="0px"
	 viewBox="0 0 512 512" style="enable-background:new 0 0 512 512;" xml:space="preserve">
<style type="text/css">
	.st0{fill:#00ABC7;}
	.st1{fill:#0091A0;}
	.st2{fill:#FFD630;}
	.st3{fill:#F5BE18;}
	.st4{fill:#00CC96;}
	.st5{fill:#07B587;}
</style>
<circle class="st0" cx="256" cy="256" r="256"/>
<path class="st1" d="M511.8,270.2c-7,130.2-111.2,234.4-241.4,241.6L157.1,398.5l108.2-109.7l-20.7-21.4l22.8-22.4l20.5,20.9
	l108.9-110.3l114.8,114.8L511.8,270.2z"/>
<path class="st2" d="M216.3,225.8l-50.9,2.5C164.9,228.3,195.5,190.7,216.3,225.8z"/>
<g>
	<path class="st3" d="M229.8,214.4l-30.2-82.2C210.1,142.3,277.1,171.9,229.8,214.4z"/>
	<path class="st3" d="M216.3,225.8v-0.2l-0.8-1.3l-49.3,3l-0.8,1.1C164.5,228.3,197.9,260.9,216.3,225.8z"/>
</g>
<path class="st2" d="M229.8,214.4l1.5-1.3l-28.8-78l-3-3C198.9,133.8,169.8,207.4,229.8,214.4z"/>
<g>
	<path class="st4" d="M115.4,326.6l80.1-78.6c8.5-8.2,22-8,30.2,0.2l2.7,3l31.9,32.6l2.7,3c8.2,8.5,8,22-0.2,30.2l-80.1,78.6
		c-8.5,8.2-22,8-30.2-0.2L115.2,357c-8.2-8.5-8-22,0.2-30.2L115.4,326.6L115.4,326.6z M214.6,264.9l-2.7-3c-0.6-0.6-1.7-0.6-2.3,0
		l-80.1,78.6c-0.6,0.6-0.6,1.7,0,2.3l37.4,38.3c0.6,0.6,1.7,0.6,2.3,0l80.1-78.6c0.6-0.6,0.6-1.7,0-2.3l-2.7-3l-31.9-32.6
		L214.6,264.9L214.6,264.9z"/>
	<path class="st4" d="M249,195.5l80.1-78.6c8.5-8.2,22-8,30.2,0.2l37.4,38.3c8.2,8.5,8,22-0.2,30.2l-80.1,78.6
		c-8.5,8.2-22,8-30.2-0.2l-2.7-3l-31.7-32.6l-0.2,0.2l-2.7-3C240.6,217.3,240.8,203.8,249,195.5z M297.4,247.3l2.7,3
		c0.6,0.6,1.7,0.6,2.3,0l80.1-78.6c0.6-0.6,0.6-1.7,0-2.3l-37.4-38.3c-0.6-0.6-1.7-0.6-2.3,0l-80.1,78.6c-0.6,0.6-0.6,1.7,0,2.3
		l2.7,3l31.9,32.6L297.4,247.3L297.4,247.3L297.4,247.3z"/>
</g>
<path class="st2" d="M208.6,285.2l74.4-72.9c4.9-4.7,12.7-4.7,17.3,0.2l0,0c4.7,4.9,4.7,12.7-0.2,17.3l-74.4,72.9
	c-4.9,4.7-12.7,4.7-17.3-0.2l0,0C203.8,297.6,203.8,289.8,208.6,285.2z"/>
<g>
	<path class="st5" d="M253.3,276.1l7.2,7.4l2.7,3c8.2,8.5,8,22-0.2,30.2l-80.1,78.6c-8.5,8.2-22,8-30.2-0.2l-18.8-19l14.2-14
		l18.8,19c0.6,0.6,1.7,0.6,2.3,0l80.1-78.6c0.6-0.6,0.6-1.7,0-2.3l-2.7-3l-7.2-7.4l14.2-14L253.3,276.1z"/>
	<path class="st5" d="M378.2,136.1l18.8,19c8.2,8.5,8,22-0.2,30.2L316.7,264c-8.5,8.2-22,8-30.2-0.2l-2.7-3l-7.2-7.4l14.2-13.7
		l7.2,7.4l2.7,3c0.6,0.6,1.7,0.6,2.3,0l80.1-78.6c0.6-0.6,0.6-1.7,0-2.3l-18.8-19l14.2-14L378.2,136.1L378.2,136.1z"/>
</g>
<path class="st3" d="M300.6,212.5L300.6,212.5c4.7,4.9,4.7,12.7-0.2,17.3L226,302.7c-4.9,4.7-12.7,4.7-17.3-0.2l0,0l92-90.3V212.5z"
	/>
</svg>
