<?xml version="1.0" encoding="utf-8"?>
<!-- Generator: Adobe Illustrator 19.2.1, SVG Export Plug-In . SVG Version: 6.00 Build 0)  -->
<svg version="1.1" id="Layer_1" xmlns="http://www.w3.org/2000/svg" xmlns:xlink="http://www.w3.org/1999/xlink" x="0px" y="0px"
	 viewBox="0 0 512 512" style="enable-background:new 0 0 512 512;" xml:space="preserve">
<style type="text/css">
	.st0{fill:#00ABC7;}
	.st1{fill:#F5A209;}
	.st2{fill:#FFFFFF;}
	.st3{fill:#ECF0F1;}
	.st4{fill:#FFCA4F;}
	.st5{fill:#B3B3B3;}
	.st6{fill:#FBB429;}
	.st7{fill:#F7FAFA;}
</style>
<path class="st0" d="M256,0c141.4,0,256,114.6,256,256c0,141.4-114.6,256-256,256S0,397.4,0,256C0,114.6,114.6,0,256,0z"/>
<g>
	<path class="st1" d="M450.4,244.6H61.6L256,129.8L450.4,244.6z"/>
	<path class="st1" d="M61.6,244.6h388.7V474H61.6V244.6z"/>
</g>
<path class="st2" d="M101.6,77.6H346l64.4,64.4v332H101.6V77.6L101.6,77.6z"/>
<path class="st3" d="M148.1,162.6h215.7v4.9H148.1V162.6z M148.1,215L148.1,215h215.7v4.9H148.1V215z M148.1,224.1L148.1,224.1
	h215.7v4.9H148.1V224.1z M148.1,233.1L148.1,233.1h215.7v4.9H148.1V233.1z M148.1,242.1L148.1,242.1h215.7v4.9H148.1V242.1z
	 M148.1,171.7L148.1,171.7h215.7v4.9H148.1V171.7z M148.1,180.7L148.1,180.7h215.7v4.9H148.1V180.7z M148.1,189.7L148.1,189.7h215.7
	v4.9H148.1V189.7z M148.1,198.7L148.1,198.7h165.2v4.9H148.1V198.7z M148.1,251.1L148.1,251.1h165.2v4.9H148.1V251.1z"/>
<path class="st4" d="M346,77.6V142h64.4L346,77.6z"/>
<path class="st5" d="M218.2,426.2h73.2v7.1h-73.2V426.2z"/>
<g>
	<path class="st6" d="M61.6,244.6L256,359.3L61.6,474V244.6z"/>
	<path class="st6" d="M450.4,244.6L256,359.3L450.4,474V244.6z"/>
</g>
<path class="st1" d="M256,359.3L61.6,474h388.7L256,359.3z"/>
<path class="st7" d="M410.4,206.5V142H346L410.4,206.5z"/>
<g>
	<path class="st2" d="M108.5,93.9c-1.9,2.2-4,4-6.4,5.3c-2.4,1.3-4.7,2-7.1,2c-2.6,0-5.2-0.8-7.6-2.3c-2.5-1.5-4.5-3.9-6-7
		c-1.5-3.2-2.3-6.7-2.3-10.4c0-4.7,1.2-9.3,3.6-14c2.4-4.7,5.4-8.2,8.9-10.5c3.5-2.3,7-3.5,10.3-3.5c2.6,0,5,0.7,7.3,2
		c2.3,1.3,4.3,3.4,6,6.1l1.5-6.8h7.8l-6.3,29.6c-0.9,4.1-1.3,6.4-1.3,6.8c0,0.8,0.3,1.5,0.9,2.1s1.3,0.9,2.2,0.9
		c1.6,0,3.6-0.9,6.1-2.7c3.3-2.3,6-5.5,8-9.4c2-3.9,2.9-8,2.9-12.2c0-4.9-1.3-9.5-3.8-13.7c-2.5-4.2-6.3-7.6-11.3-10.2
		c-5-2.5-10.5-3.8-16.5-3.8c-6.9,0-13.2,1.6-18.9,4.8c-5.7,3.2-10.1,7.8-13.2,13.8c-3.1,6-4.7,12.4-4.7,19.3
		c0,7.2,1.6,13.4,4.7,18.5c3.1,5.2,7.7,9,13.6,11.5c5.9,2.5,12.5,3.7,19.7,3.7c7.7,0,14.1-1.3,19.3-3.9c5.2-2.6,9.1-5.7,11.7-9.4
		h7.9c-1.5,3.1-4.1,6.2-7.7,9.4c-3.6,3.2-8,5.7-13,7.6c-5,1.9-11.1,2.8-18.1,2.8c-6.5,0-12.5-0.8-18-2.5c-5.5-1.7-10.2-4.2-14.1-7.5
		c-3.9-3.4-6.8-7.2-8.8-11.6c-2.5-5.5-3.7-11.5-3.7-17.9c0-7.1,1.5-14,4.4-20.4c3.6-7.9,8.7-14,15.3-18.2c6.6-4.2,14.6-6.3,24-6.3
		c7.3,0,13.8,1.5,19.6,4.5s10.4,7.4,13.7,13.3c2.9,5.1,4.3,10.6,4.3,16.5c0,8.5-3,16-9,22.6c-5.3,5.9-11.2,8.9-17.5,8.9
		c-2,0-3.7-0.3-4.9-0.9c-1.2-0.6-2.2-1.5-2.7-2.7C108.9,96.9,108.7,95.7,108.5,93.9z M87.1,82L87.1,82c0,4,1,7.1,2.9,9.4
		c1.9,2.2,4.1,3.3,6.6,3.3c1.6,0,3.4-0.5,5.2-1.5c1.8-1,3.6-2.4,5.2-4.4c1.7-1.9,3-4.4,4.1-7.4c1.1-3,1.6-6,1.6-9c0-4-1-7.1-3-9.3
		c-2-2.2-4.4-3.3-7.2-3.3c-1.9,0-3.7,0.5-5.3,1.4c-1.7,1-3.3,2.5-4.8,4.6c-1.5,2.1-2.8,4.7-3.7,7.7C87.6,76.6,87.1,79.4,87.1,82
		L87.1,82z"/>
	<path class="st2" d="M473.3,59.1L492,75.9l1.7,1.5L492,79l-18.6,16.8l-2.8-3.1l14.6-13.2h-68.4v-4.1h68.5l-14.6-13.2L473.3,59.1
		L473.3,59.1L473.3,59.1z"/>
	<path class="st2" d="M405.6,70.8L387,87.6l-1.7,1.5l1.7,1.5l18.6,16.8l2.8-3.1l-14.6-13.2h68.5v-4.1h-68.5l14.6-13.2L405.6,70.8
		L405.6,70.8z"/>
</g>
</svg>
