<?xml version="1.0" encoding="utf-8"?>
<!-- Generator: Adobe Illustrator 19.2.1, SVG Export Plug-In . SVG Version: 6.00 Build 0)  -->
<svg version="1.1" id="Capa_1" xmlns="http://www.w3.org/2000/svg" xmlns:xlink="http://www.w3.org/1999/xlink" x="0px" y="0px"
	 viewBox="0 0 52.5 34.8" style="enable-background:new 0 0 52.5 34.8;" xml:space="preserve">
<style type="text/css">
	.st0{fill:#FFFFFF;}
</style>
<g>
	<path class="st0" d="M28,31.3c-15,4.4-25-5.6-25-5.6c21,1.2,26.7-14,26.7-14l-8.9-6L45.6,1l4.9,24.7l-8.9-6
		C35.3,29.7,28,31.3,28,31.3z"/>
	<path class="st0" d="M3.1,24.9c14.3,0.8,21.3-6.2,24.1-10.4c0.7-1,1.1-1.8,1.4-2.4l-10-6.8L46.3,0l5.5,27.7L41.8,21
		c0,0.1-0.1,0.1-0.2,0.2c-6.2,9.2-13.1,10.9-13.4,11c-15.3,4.5-25.7-5.7-25.8-5.8l-1.6-1.6L3.1,24.9z M40.8,19.3l0.5-0.8l7.8,5.3
		L44.9,2.1L23.1,6.2l7.7,5.2l-0.2,0.7c-0.1,0.2-5.5,14.5-24.9,14.6c3.5,2.5,11.6,6.8,22.2,3.8c0.1,0,6.5-1.6,12.4-10.3
		C40.4,19.9,40.6,19.6,40.8,19.3z"/>
</g>
</svg>
