<?xml version="1.0" encoding="utf-8"?>
<!-- Generator: Adobe Illustrator 19.2.1, SVG Export Plug-In . SVG Version: 6.00 Build 0)  -->
<svg version="1.1" id="Layer_1" xmlns="http://www.w3.org/2000/svg" xmlns:xlink="http://www.w3.org/1999/xlink" x="0px" y="0px"
	 viewBox="0 0 512 512" style="enable-background:new 0 0 512 512;" xml:space="preserve">
<style type="text/css">
	.st0{fill:#00ABC7;}
	.st1{fill:#D84C4C;}
	.st2{fill:#FFFFFF;}
	.st3{fill:#DDBF3E;}
	.st4{fill:#ECF0F1;}
</style>
<path class="st0" d="M256,512c141,0,256-115,256-256S397,0,256,0C115,0,0,115,0,256S115,512,256,512z"/>
<path class="st1" d="M153.1,135.5v282.6l62.2-54.6V80.9h-8.1l-4.3,3.3H162l0-3.3l-6.7,0.1l-62.2,54.6L153.1,135.5L153.1,135.5z"/>
<path class="st2" d="M101.7,135.5h44.4l56.9-51.3h-44.4L101.7,135.5z"/>
<path class="st3" d="M168.8,121.7l-7.4-0.1l-15.4,13.9h-44.4l16.1-14.6l-8-0.1l-16.7,14.7v282.6h60l15.7-13.8L168.8,121.7
	L168.8,121.7z"/>
<path class="st4" d="M249.7,135.5v282.6l62.2-54.6V80.9v0h-8.1l-4.3,3.3h-40.9l0-3.3l-6.7,0.1l-62.2,54.6L249.7,135.5L249.7,135.5
	L249.7,135.5L249.7,135.5z"/>
<path class="st2" d="M198.2,135.5h44.4l56.9-51.3h-44.4L198.2,135.5z"/>
<path class="st3" d="M265.4,121.7l-7.4-0.1l-15.4,13.9h-44.4l16.1-14.6l-8-0.1l-16.7,14.7v282.6h60l15.7-13.8L265.4,121.7
	L265.4,121.7z"/>
<path class="st1" d="M380.9,70.8l-46,68.8l72.7,273.1l46-68.8L380.9,70.8l-7.8,2.1l-3.3,4.3l-39.5,10.5l-0.9-3.2l-6.5,1.8l-46,68.8
	l58-15.4L380.9,70.8z"/>
<path class="st2" d="M285.2,152.9l42.9-11.4l41.7-64.2l-42.9,11.4L285.2,152.9L285.2,152.9L285.2,152.9z"/>
<path class="st3" d="M346.5,122.3l-7.1,1.8l-11.3,17.4l-42.9,11.4l11.8-18.2l-7.7,1.9l-12.4,18.5l72.7,273.1l58-15.4l11.6-17.4
	L346.5,122.3L346.5,122.3z"/>
<g>
	<path class="st2" d="M394.4,146.8l-3.7-13.9L365,174.9l3.6,13.9L394.4,146.8L394.4,146.8z"/>
	<path class="st2" d="M380.5,138.9l-1.9-9l-17.4,28.4l1.9,9L380.5,138.9L380.5,138.9L380.5,138.9z"/>
</g>
</svg>
