<?xml version="1.0" encoding="utf-8"?>
<!-- Generator: Adobe Illustrator 19.2.1, SVG Export Plug-In . SVG Version: 6.00 Build 0)  -->
<svg version="1.1" id="Layer_1" xmlns="http://www.w3.org/2000/svg" xmlns:xlink="http://www.w3.org/1999/xlink" x="0px" y="0px"
	 viewBox="0 0 512 512" style="enable-background:new 0 0 512 512;" xml:space="preserve">
<style type="text/css">
	.st0{fill:#FFFFFF;}
</style>
<g transform="translate(1 1)">
	<g>
		<g>
			<path class="st0" d="M254.6,135.5c5.1,0,8.5-3.4,8.5-8.5s-3.4-8.5-8.5-8.5c-5.1,0-8.5,3.4-8.5,8.5
				C246,132.1,249.5,135.5,254.6,135.5z"/>
			<path class="st0" d="M254.6,101.4c5.1,0,8.5-3.4,8.5-8.5c0-5.1-3.4-8.5-8.5-8.5c-5.1,0-8.5,3.4-8.5,8.5
				C246,98,249.5,101.4,254.6,101.4z"/>
			<path class="st0" d="M254.6,67.3c5.1,0,8.5-3.4,8.5-8.5s-3.4-8.5-8.5-8.5c-5.1,0-8.5,3.4-8.5,8.5S249.5,67.3,254.6,67.3z"/>
			<path class="st0" d="M362.1,118.5c-1.9,0-3.8,0.3-5.7,0.6C335.7,46.5,298.4-1,254.6-1c-43.8,0-81,47.5-101.8,120
				c-1.6-0.3-3.1-0.5-4.8-0.5c-36.7,0-64,62.3-64,145.1s27.3,145.1,64,145.1c3.3,0,6.6-0.6,9.8-1.7c21.5,63.5,56.4,104.1,96.9,104.1
				c40.5,0,75.4-40.6,96.9-104.1c3.3,1.1,6.5,1.7,9.8,1.7c36.7,0,64.9-62.3,64.9-145.1S398.8,118.5,362.1,118.5z M147.9,391.5
				c-22.2,0-46.9-52.9-46.9-128c0-71.7,22.2-122.9,43.5-128c-6,32.4-9.4,66.6-9.4,101.5c0,1.7,0,2.6,0,4.3v2.6c0,3.4,0,7.7,0,11.1
				c0,2.7,0,5.4,0.1,8.2c0,0.8,0,1.6,0,2.3c0,2.1,0.1,4.2,0.1,6.3c0,0.7,0,1.4,0.1,2c0.1,2.8,0.2,5.5,0.3,8.2c0,0.1,0,0.1,0,0.2
				c0.1,2.8,0.3,5.6,0.5,8.4c0,0.2,0,0.4,0,0.6c2.3,36.3,8,70,16.5,99.6C151.1,391.5,149.5,391.5,147.9,391.5z M254.6,493.9
				c-46.6,0-87.2-77.1-98.9-178.6c-0.1-1.1-0.3-2.2-0.4-3.3c-0.1-1.2-0.3-2.4-0.4-3.6c-0.2-2.3-0.4-4.5-0.6-6.8
				c-0.1-0.9-0.1-1.8-0.2-2.6c-0.2-2-0.3-4.1-0.5-6.2c0-0.6-0.1-1.1-0.1-1.7c-0.2-2.6-0.3-5.1-0.5-7.7c0-0.7-0.1-1.4-0.1-2.1
				c-0.1-2.5-0.2-4.9-0.3-7.4c0-0.2,0-0.5,0-0.7c-0.1-2.7-0.2-5.4-0.2-8.1c0-0.7,0-1.3,0-2c0-2.7-0.1-5.5-0.1-8.2
				c0-129.7,46.9-238.9,102.4-238.9S357,125.3,357,255c0,2.8,0,5.5-0.1,8.2c0,0.6,0,1.3,0,1.9c-0.1,2.8-0.1,5.5-0.2,8.2
				c0,0,0,0.1,0,0.1c-0.1,2.9-0.2,5.7-0.4,8.6c0,0.3,0,0.5,0,0.8c-2.1,39.2-8.5,76.3-18.9,109.5l-1.7,6l0.2,0.1
				C316.9,456.1,287.2,493.9,254.6,493.9z M361.2,391.5c-1.6,0-3.2,0-4.8-0.7c8.4-29.5,14.2-63.2,16.5-99.6c0-0.2,0-0.4,0-0.6
				c0.2-2.8,0.3-5.6,0.5-8.4c0-0.1,0-0.1,0-0.2c0.1-2.7,0.2-5.5,0.3-8.2c0-0.7,0-1.4,0.1-2c0.1-2.1,0.1-4.2,0.1-6.3
				c0-0.8,0-1.6,0-2.3c0-2.7,0.1-5.4,0.1-8.2c0-3.4,0-6.8,0-10.2v-2.6c0-1.7,0-2.6,0-4.3c0-35.8-2.6-70-9.4-102.4
				c21.3,5.1,43.5,56.3,43.5,128C408.2,338.6,383.4,391.5,361.2,391.5z"/>
			<path class="st0" d="M247.7,208.1c-1.7,1.7-27.3,41.8-27.3,115.2c0,1.7,0,21.3,11.9,34.1c6,5.1,13.7,8.5,22.2,8.5
				c8.5,0,16.2-3.4,22.2-8.5c11.9-12.8,11.9-32.4,11.9-34.1c0-73.4-25.6-114.3-26.5-115.2C258.8,202.9,251.2,202.9,247.7,208.1z
				 M271.6,324.1c0,3.4-0.9,15.4-6.8,21.3c-2.6,2.6-6,3.4-10.2,3.4c-4.3,0-7.7-0.9-10.2-3.4c-6-6-6.8-17.9-6.8-22.2
				c0-44.4,10.2-75.1,17.1-92.2C261.4,248.2,271.6,279.7,271.6,324.1z"/>
			<path class="st0" d="M246,169.7c0-5.1-3.4-8.5-8.5-8.5h-51.2c-5.1,0-8.5,3.4-8.5,8.5s3.4,8.5,8.5,8.5h51.2
				C242.6,178.2,246,174.8,246,169.7z"/>
			<path class="st0" d="M322.8,161.1h-51.2c-5.1,0-8.5,3.4-8.5,8.5s3.4,8.5,8.5,8.5h51.2c5.1,0,8.5-3.4,8.5-8.5
				S328,161.1,322.8,161.1z"/>
			<path class="st0" d="M288.7,408.6h-68.3c-5.1,0-8.5,3.4-8.5,8.5s3.4,8.5,8.5,8.5h68.3c5.1,0,8.5-3.4,8.5-8.5
				S293.8,408.6,288.7,408.6z"/>
		</g>
	</g>
</g>
</svg>
