<?xml version="1.0" encoding="utf-8"?>
<!-- Generator: Adobe Illustrator 19.2.1, SVG Export Plug-In . SVG Version: 6.00 Build 0)  -->
<svg version="1.1" id="Layer_1" xmlns="http://www.w3.org/2000/svg" xmlns:xlink="http://www.w3.org/1999/xlink" x="0px" y="0px"
	 viewBox="0 0 395.7 395.7" style="enable-background:new 0 0 395.7 395.7;" xml:space="preserve">
<style type="text/css">
	.st0{fill:#FFFFFF;}
	.st1{fill:#00ABC7;}
	.st2{fill:#A2DADD;}
</style>
<path class="st0" d="M333.2,62.5c-74.8-74.8-195.9-74.8-270.7,0s-74.8,195.9,0,270.7c67.4,67.4,172.5,74.2,247.3,19.8l62.4,19.1
	L353,309.8C407.4,235,400.6,129.9,333.2,62.5z"/>
<g>
	<path class="st1" d="M337.5,58.2C300.4,20.5,250.4,0,197.8,0C144.7,0,95.2,20.5,57.5,58.2C20.4,95.3,0,145.3,0,197.9
		s20.4,102.6,58.1,139.7c37.1,37.1,87.1,58.1,139.7,58.1c40.8,0,79.8-12.3,113.1-35.9l70.5,21.7L359.8,311
		C414.8,232.5,406.2,126.2,337.5,58.2z M362.9,362.9l-54.4-16.7l-2.5,1.9c-31.5,22.9-69.2,35.2-108.2,35.2
		c-49.5,0-95.8-19.1-131-54.4c-35.2-35.3-54.4-81.6-54.4-131.1s19.1-95.8,54.4-131s81.6-54.4,131-54.4s95.8,19.1,131,54.4
		c64.9,64.9,72.9,165.7,19.1,239.3l-1.9,2.5L362.9,362.9z"/>
	<path class="st1" d="M197.8,362.9L197.8,362.9c-4.3,0-8.7,0-13-0.6l1.2-12.3c3.7,0,8,0.6,11.8,0.6V362.9z M210.8,362.3l-1.2-12.3
		c3.7,0,8-0.6,11.8-1.2l1.9,12.3C219.5,361.7,215.1,362.3,210.8,362.3z M171.8,361.1c-4.3-0.6-8.7-1.2-13-2.5l3.1-11.8
		c3.7,0.6,8,1.9,11.8,2.5L171.8,361.1z M236.2,358.6l-2.5-12.3c3.7-0.6,8-1.9,11.8-3.1l3.7,11.8
		C244.8,356.1,240.5,357.4,236.2,358.6z M146.5,354.9c-4.3-1.2-8-3.1-12.3-4.3l4.9-11.1c3.7,1.2,7.4,3.1,11.1,4.3L146.5,354.9z
		 M260.8,350.6l-4.9-11.1c3.7-1.2,7.4-3.1,11.1-4.9l5.6,11.1C268.9,346.9,265.2,348.7,260.8,350.6z M122.4,345
		c-3.7-1.9-7.4-4.3-11.1-6.2l6.2-10.5c3.1,1.9,6.8,4.3,10.5,5.6L122.4,345z M283.7,338.8l-6.2-10.5c3.1-1.9,6.8-4.3,9.9-6.8l7.4,9.9
		C291.2,333.9,287.5,336.3,283.7,338.8z M100.8,331.4c-3.7-2.5-6.8-5-9.9-8l8-9.2c3.1,2.5,6.2,5,9.2,7.4L100.8,331.4z M304.7,323.3
		l-8-9.2c3.1-2.5,6.2-5.6,8.7-8l9.2,8.7l-0.6,0.6C311.6,317.8,308.5,320.9,304.7,323.3z M81,314.7L81,314.7L81,314.7L81,314.7
		c-3.7-3.7-6.2-6.8-9.2-9.9l9.2-8c2.5,3.1,5.6,6.2,8,8.7L81,314.7z M323.9,304.8l-9.9-8c2.5-3.1,4.9-6.2,7.4-9.2l9.9,7.4
		C328.9,298,326.4,301.7,323.9,304.8z M64.3,294.9c-2.5-3.7-5-7.4-7.4-10.5l10.5-6.2c1.9,3.1,4.3,6.8,6.8,9.9L64.3,294.9z
		 M338.7,283.8l-10.5-6.2c1.9-3.7,4.3-6.8,5.6-10.5l11.1,5.6C343.1,276.3,341.3,280.1,338.7,283.8z M50.7,273.3
		c-1.9-3.7-3.7-8-5.6-11.8l11.1-4.9c1.2,3.7,3.1,7.4,5,11.1L50.7,273.3z M350.5,260.9l-11.8-4.9c1.2-3.7,3.1-7.4,4.3-11.1l11.8,3.7
		C353.6,252.9,352.4,256.6,350.5,260.9z M40.8,249.2c-1.2-4.3-2.5-8-3.7-12.3l11.8-3.1c0.6,3.7,1.9,8,3.1,11.8L40.8,249.2z
		 M358.5,236.2l-12.3-3.1c0.6-3.7,1.9-8,2.5-11.8l12.3,1.9C360.4,227.5,359.2,231.9,358.5,236.2z M34.6,223.9
		c-0.6-4.3-1.2-8.7-1.2-13l12.3-1.2c0.6,3.7,0.6,8,1.2,11.8L34.6,223.9z M362.3,210.2l-12.3-1.2c0-3.7,0.6-8,0.6-11.8l12.3-0.6v1.2
		C362.9,202.2,362.9,206.5,362.3,210.2z M32.1,197.9L32.1,197.9c0-4.3,0-8.7,0.6-13l12.3,1.2c0,3.7-0.6,8-0.6,11.8H32.1z
		 M349.9,185.5c-0.6-3.7-0.6-8-1.2-11.8l12.3-1.9c0.6,4.3,1.2,8.7,1.2,13L349.9,185.5z M46.4,174.4L34,172.5c0.6-4.3,1.2-8.7,2.5-13
		l11.8,3.1C48.2,166.3,47,170.1,46.4,174.4z M346.2,162c-1.2-3.7-1.9-8-3.1-11.8l11.8-3.7c1.2,4.3,2.5,8,3.7,12.3L346.2,162z
		 M51.9,150.9l-11.8-3.7c1.2-4.3,3.1-8,4.3-12.3l11.1,4.9C55,143.5,53.1,147.2,51.9,150.9z M338.7,139.2c-1.2-3.7-3.1-7.4-4.9-11.1
		l11.1-5.6c1.9,3.7,3.7,8,5.6,11.8L338.7,139.2z M61.2,128.6l-11.1-5.6c1.9-3.7,4.3-7.4,6.2-11.1l10.5,6.2
		C64.9,121.2,63,124.9,61.2,128.6z M327.6,117.5c-1.9-3.1-4.3-6.8-6.8-9.9l9.9-7.4c2.5,3.7,4.9,6.8,7.4,10.5L327.6,117.5z
		 M73.6,108.2l-9.9-7.4c2.5-3.7,5-6.8,8-9.9l9.2,8C78.5,101.4,76,105.2,73.6,108.2z M314.1,98.3c-2.5-3.1-4.9-5.6-8-8.7l4.3-4.3
		l4.3-4.3l0,0c3.1,3.1,6.2,6.2,8.7,9.2L314.1,98.3z M89.7,89.7l-4.3-4.3L81,81.1c3.1-3.1,6.2-6.2,9.2-8.7l8,9.2
		C95.2,84.2,92.1,87.2,89.7,89.7z M296.7,81.6c-3.1-2.5-6.2-4.9-9.2-7.4l7.4-9.9c3.7,2.5,6.8,4.9,9.9,8L296.7,81.6z M107.6,74.3
		l-7.4-9.9c3.7-2.5,6.8-5,10.5-7.4l6.2,10.5C114.4,69.9,110.7,71.7,107.6,74.3z M277.6,67.4c-3.1-1.9-6.8-4.3-10.5-5.6l5.6-11.1
		c3.7,1.9,7.4,4.3,11.1,6.2L277.6,67.4z M127.9,61.9l-5.6-11.1c3.7-1.9,8-3.7,11.8-5.6l4.9,11.1C135.4,58.2,131.7,60,127.9,61.9z
		 M255.9,56.3c-3.7-1.2-7.4-3.1-11.1-4.3l3.7-11.8c4.3,1.2,8,3.1,12.3,4.3L255.9,56.3z M150.2,52.6l-3.7-11.8
		c4.3-1.2,8-2.5,12.3-3.7l3.1,12.3C157.6,50.2,153.9,51.4,150.2,52.6z M233.1,48.9c-3.7-0.6-8-1.9-11.8-2.5l1.9-12.3
		c4.3,0.6,8.7,1.2,13,2.5L233.1,48.9z M173.7,47l-1.9-12.3c4.3-0.6,8.7-1.2,13-1.2l1.2,12.3C181.7,45.8,177.4,46.4,173.7,47z
		 M209.6,45.2c-3.7,0-8-0.6-11.8-0.6V32.2l0,0c4.3,0,8.7,0,13,0.6L209.6,45.2z"/>
</g>
<path class="st1" d="M286.8,287.5c-49.5,49.5-129.2,49.5-178.7,0s-49.5-129.2,0-178.7s129.2-49.5,178.7,0
	C336.3,157.7,336.3,238.1,286.8,287.5z"/>
<g>
	<rect x="177.4" y="168.2" class="st0" width="40.2" height="115"/>
	<path class="st0" d="M197.8,149.1L197.8,149.1c-11.1,0-20.4-9.2-20.4-20.4l0,0c0-11.1,9.2-20.4,20.4-20.4l0,0
		c11.1,0,20.4,9.2,20.4,20.4l0,0C217.6,139.8,208.9,149.1,197.8,149.1z"/>
</g>
<g>
	<path class="st2" d="M197.8,155.2c-14.2,0-26.6-11.8-26.6-26.6c0-14.2,11.8-26.6,26.6-26.6c14.2,0,26.6,11.8,26.6,26.6
		C223.8,143.5,212,155.2,197.8,155.2z M197.8,115.1c-7.4,0-14.2,6.2-14.2,14.2c0,7.4,6.2,14.2,14.2,14.2c7.4,0,14.2-6.2,14.2-14.2
		C211.4,121.2,205.3,115.1,197.8,115.1z"/>
	<path class="st2" d="M223.8,277V162h-64.3v12.3h11.8v115h71.1V277L223.8,277L223.8,277z M211.4,277h-27.8V174.4h27.8V277z"/>
</g>
</svg>
