<?xml version="1.0" encoding="utf-8"?>
<!-- Generator: Adobe Illustrator 19.2.1, SVG Export Plug-In . SVG Version: 6.00 Build 0)  -->
<svg version="1.1" id="Capa_1" xmlns="http://www.w3.org/2000/svg" xmlns:xlink="http://www.w3.org/1999/xlink" x="0px" y="0px"
	 viewBox="0 0 416.1 416.1" style="enable-background:new 0 0 416.1 416.1;" xml:space="preserve">
<style type="text/css">
	.st0{fill:#FFFFFF;}
</style>
<path class="st0" d="M334.7,117.6c-2.4-9.6-9.1-17.2-18.2-20.9l-56.3-22.9c-3-1.2-5.5-3.5-7.1-6.3l-8.5-15.4
	c-4.1-7.4-12-11.9-20.4-11.5c-5.1,0.2-10-2.4-12.7-6.7l-5.5-9c-5.6-9.1-14.7-15.6-25.1-17.9L154.5,1c-2.8-0.6-5.7-1-8.7-1
	c-9.2,0-18.1,3.2-25.2,9l-11.3,9.3c-6.8,5.6-8.5,15.5-3.9,23c2.1,3.4,1.9,7.6-0.4,10.8l-15.7,22c-9.5,13.3-11.6,30.4-5.4,45.6
	l10.7,26.6c5,12.5,14.2,23.2,25.8,30c16.2,9.6,26.9,25.8,29.3,44.4l19.9,151.7c0,0.3,0.1,0.5,0.2,0.7l4,11.9
	c5.9,17.8,22.6,30.1,41.4,30.4l25.4,0.5c0,0,0.1,0,0.1,0c0,0,0,0,0,0c2.2,0,4-1.8,4-4c0-1.4-0.7-2.6-1.7-3.3l-11.7-9.7
	c-9.9-8.2-15.4-20.2-15.2-33.1l0.3-21.1c0.2-9.5,5.5-18,14-22.2l0.9-0.5c7-3.5,10.4-11.7,7.9-19.2c-0.8-2.3-0.4-4.8,0.9-6.8
	c1.3-2,3.5-3.3,5.9-3.5l0.5,0c6.8-0.6,12.4-5.4,14.1-12l7.3-29.7c2.6-10.6,10.3-18.9,20.7-22.3c16.2-5.3,27.1-20.3,27.1-37.3v-22.8
	c0-5.3,1.8-10.4,5.2-14.5l7.8-9.5C334.9,137.1,337.1,127.2,334.7,117.6z M224.5,48.6c5.4-0.2,10.5,2.6,13.1,7.3l1.4,2.6l-30.5,6.7
	l-10.9-20.9l5.2-9.4l1.9,3.1C208.8,44.8,216.5,48.9,224.5,48.6z M152.7,8.8l26.3,5.9c7.5,1.7,14.3,6.2,18.8,12.4L179,61.5l-15.7,3.1
	c0.3-0.7,0.4-1.4,0.3-2.2l-4-26c-0.1-0.9-0.6-1.7-1.2-2.3l-25-23.6c3.9-1.7,8.1-2.6,12.4-2.6C148.2,8,150.5,8.3,152.7,8.8z
	 M111.6,56.8c4.2-5.8,4.4-13.5,0.7-19.6c-2.5-4.1-1.6-9.6,2.1-12.7l11.3-9.3c0.2-0.1,0.3-0.3,0.5-0.4L151.9,39l3.6,23.5l-12.8,28.9
	l-40-22.2L111.6,56.8z M91.3,116.8c-5.1-12.7-3.4-26.9,4.5-38l2.2-3.1l41.1,22.8L121.8,128l-21.4,11.3L91.3,116.8z M124.5,169.6
	c-9.1-5.4-16.4-13.4-21-22.9l23-12.1c0.7-0.3,1.2-0.9,1.6-1.5l20-34l11.3-25.5l23-4.6c1.2-0.2,2.2-1,2.7-2l7.8-14.2l7.5,14.3
	l-0.6,0.1c-0.9,0.2-1.7,0.7-2.3,1.4l-31,39c-0.6,0.7-0.9,1.6-0.9,2.5v38c0,1.2,0.6,2.4,1.6,3.2l42.9,32.9l-28.4,22.1
	c-1.1,0.9-1.7,2.2-1.5,3.6l5,41.7l-23,2.5l-4.5-34.2C154.9,198.7,142.8,180.4,124.5,169.6z M209.4,378.3l-32.1-9.4l-1.3-10.2
	l32.1,4.8l0,2.4C207.9,370.1,208.4,374.3,209.4,378.3z M226.1,405.2l3.1,2.6l-14-0.3c-15.4-0.3-29.1-10.3-33.9-24.9l-1.5-4.6
	l32.7,9.6C215.6,394.3,220.2,400.4,226.1,405.2z M208.4,344.7l-0.2,10.7l-33.3-5L163.2,262l24-2.6l29.5,63.8
	C211.6,329,208.5,336.6,208.4,344.7z M286.1,221.2c-13,4.2-22.7,14.7-26,28l-7.3,29.7c-0.8,3.3-3.6,5.6-6.9,5.9l-0.5,0
	c-4.9,0.4-9.2,3-11.9,7.1c-2.7,4.1-3.3,9.1-1.8,13.7c1.2,3.7-0.5,7.7-3.9,9.5l-0.9,0.5c-1.3,0.6-2.5,1.4-3.7,2.2L193.5,254
	l-5.1-42.8l29.2-22.8l85.2,19.9C299,214.2,293.2,218.9,286.1,221.2z M322.4,139.6l-7.8,9.5c-4.5,5.5-7,12.4-7,19.5v22.8
	c0,3.3-0.5,6.4-1.4,9.4l-87.8-20.5l-44.7-34.3v-34.6l29.2-36.8l40.1-8.8l3,5.5c2.4,4.5,6.4,8,11.1,9.9l56.3,22.9
	c6.8,2.8,11.7,8.4,13.5,15.5C328.7,126.7,327.1,134,322.4,139.6z"/>
</svg>
