<?xml version="1.0" encoding="utf-8"?>
<!-- Generator: Adobe Illustrator 19.2.1, SVG Export Plug-In . SVG Version: 6.00 Build 0)  -->
<svg version="1.1" id="Capa_1" xmlns="http://www.w3.org/2000/svg" xmlns:xlink="http://www.w3.org/1999/xlink" x="0px" y="0px"
	 viewBox="0 0 66.9 67.5" style="enable-background:new 0 0 66.9 67.5;" xml:space="preserve">
<style type="text/css">
	.st0{fill:#FFFFFF;}
</style>
<g>
	<path class="st0" d="M62.4,19.8L50.5,32c-4.2,4.3-11.2,4.4-15.6,0.2S30.5,21,34.8,16.7L44.9,6.2l0.1,8.9c0,0.6,0.5,1,1,1
		c0.3,0,0.5-0.1,0.7-0.3c0.2-0.2,0.3-0.4,0.3-0.7L46.9,3.8c0-0.1,0-0.3-0.1-0.4c-0.1-0.2-0.3-0.4-0.5-0.5c-0.1,0-0.3-0.1-0.4-0.1
		L34.6,3c-0.6,0-1,0.5-1,1c0,0.6,0.5,1,1,1l8.9-0.1L33.3,15.3c-5,5.1-4.9,13.4,0.3,18.4S47,38.6,52,33.4l11.9-12.2
		c0.4-0.4,0.4-1,0-1.4S62.8,19.4,62.4,19.8z"/>
	<path class="st0" d="M16.6,32.5L4.7,44.7c-0.4,0.4-0.4,1,0,1.4s1,0.4,1.4,0L18,33.9c4.2-4.3,11.2-4.4,15.6-0.2s4.4,11.2,0.2,15.6
		L23.6,59.7l-0.1-8.9c0-0.6-0.5-1-1-1s-1,0.5-1,1l0.2,11.3c0,0.1,0,0.3,0.1,0.4c0.1,0.2,0.3,0.4,0.5,0.5c0.1,0,0.3,0.1,0.4,0.1
		L34,63c0.3,0,0.5-0.1,0.7-0.3c0.2-0.2,0.3-0.4,0.3-0.7c0-0.6-0.5-1-1-1l-8.9,0.1l10.2-10.5c5-5.1,4.9-13.4-0.3-18.4
		S21.6,27.4,16.6,32.5z"/>
</g>
</svg>
