<?xml version="1.0" encoding="utf-8"?>
<!-- Generator: Adobe Illustrator 19.2.1, SVG Export Plug-In . SVG Version: 6.00 Build 0)  -->
<svg version="1.1" id="Capa_1" xmlns="http://www.w3.org/2000/svg" xmlns:xlink="http://www.w3.org/1999/xlink" x="0px" y="0px"
	 viewBox="0 0 434.3 434.3" style="enable-background:new 0 0 434.3 434.3;" xml:space="preserve">
<style type="text/css">
	.st0{fill:#FFFFFF;}
</style>
<path class="st0" d="M432.7,135.9l-14.6-34.7c-2.3-5.4-7.5-8.8-13.3-8.8c-2.6,0-5.2,0.7-7.4,2.1c-1,0.6-2.1,0.9-3.3,0.9
	c-2.5,0-4.7-1.4-5.8-3.6l-2.1-4.1c-2.5-4.9-7.4-8-12.9-8h-8.9c-4.9,0-9.4,2.4-12.1,6.5l-27.8,42.1c-0.5,0.7-1.3,1.2-2.2,1.2
	l-4.7-0.2c-1.3-0.1-2-1-2.2-1.4c-0.2-0.4-0.6-1.4,0-2.6c1.5-2.7,1.8-5.9,0.7-8.8c-1-2.9-3.3-5.2-6.2-6.3l-12.2-4.8
	c-3-1.2-5.4-3.6-6.5-6.7c-1.1-3.1-0.7-6.5,1-9.3c1.3-2.2,3.4-3.9,5.9-4.8l34.1-11.8c6.9-2.4,13.3-6.4,18.5-11.6
	c3.3-3.3,4.2-8,2.4-12.2c-1.8-4.2-5.8-7-10.3-7c-0.3,0-5.7,0.4-5.7,0.4c-2.8,0.2-5.6,0.8-8.3,1.7l-19.7,6.6L249,48
	c-5.7-0.2-11.2-1.3-16.6-3.2l-11.5-4c-7-2.4-14.3-3.7-21.7-3.7c-7.1,0-14,1.1-20.8,3.4l-0.1,0c-5.9,2-12,3-18.2,3
	c-4,0-8.1-0.4-12-1.3l-39.2-8.4c-4.9-1-9.9-1.6-14.9-1.6c-8.6,0-17.1,1.5-25.2,4.6l-17.1,6.5c-6.6,2.5-12.8,5.9-18.3,10.2L7.8,73.3
	C3.3,76.8,0.4,82.2,0,87.9c-0.4,5.8,1.8,11.4,5.9,15.5c1.7,1.7,3.6,3,5.8,4l4.4,2c4.7,2.2,10.3,2.4,15.2,0.7L62.4,99
	c6.9-2.5,14.8-1.9,21.2,1.7c9.3,5.2,15.1,15,15.1,25.6c0,20.4-5.5,40.6-15.9,58.2c-6.6,11.2-9.2,24.5-7.1,37.3
	c4.1,25.8,10.8,51.3,20,75.7c1,2.8,3.6,4.5,6.5,4.5c3.2,0,5.9-2.1,6.8-5.1l1.8-6.5c0-0.1,0.1-0.2,0.3-0.2c0.1,0,0.2,0,0.2,0.2
	l10.2,17c1.4,2.3,2.1,4.8,2.1,7.5c0,7.5,3.7,14.5,9.9,18.7l25.6,17.3c4,2.7,8.6,4.1,13.4,4.1c1,0,2-0.1,3-0.2
	c4.4-0.5,8.8,0.8,12.2,3.6l30.3,25.4l17.5,15.2c2.3,2,5.2,3.1,8.2,3.1c2.9,0,5.8-1,8-2.9l12.4-10.3c1.2-1,1.7-2.6,1.3-4.2
	c-0.4-1.5-1.7-2.6-3.3-2.9l-13.1-1.9l-13.1-9.2c-2.1-1.5-2.9-4.2-2-6.6l0.6-1.4c1.6-4.2,1.1-8.7-1.4-12.4c-2.5-3.7-6.4-5.9-10.9-6.1
	c-1.9-0.1-3.6-1-4.6-2.7s-1.1-3.6-0.3-5.3l5.6-11.8c1.1-2.4,1-5.2-0.4-7.5c-1.4-2.3-4-3.7-6.6-3.7c-1.4,0-2.7,0.4-3.9,1.1l-12.3,7.1
	c-4.1,2.4-9.1,2.7-13.4,0.8c-7.5-3.2-11.2-11.9-8.1-19.5l5.5-13.8c4.1-10.2,13.4-17.1,24.4-18.1l25.9-2.2c6.3-0.5,12,3.4,13.9,9.3
	c1.2,3.7,4.4,6.1,8.3,6.1c3.9,0,7.3-2.5,8.4-6.3l3.2-11.2c3.2-11,10.8-20.2,20.9-25.5c8.3-4.3,14.9-10.9,19.2-19.2l0.9-1.8
	c3.6-7,9.1-12.9,15.9-17l13.9-8.5c13.6-8.3,28-15.1,43.1-20.2c3.3-1.1,5.7-3.8,6.6-7.1c0.9-3.3,0-6.9-2.3-9.5l-3.7-4.2
	c-0.4-0.5-0.4-1-0.3-1.3s0.3-0.7,1-0.9l21.7-4.9c0.8-0.2,1.3,0.4,1.4,0.5c0.2,0.3,0.3,0.7,0.1,1.2c-1.2,3.2-0.7,6.7,1.2,9.5
	c2.2,3.2,6,4.8,9.8,4.3c6-0.8,11.1-4.2,14.1-9.5C434.7,147.6,435.1,141.4,432.7,135.9z M59.7,91.4l-31.1,11.2
	c-3,1.1-6.3,0.9-9.2-0.4l-4.4-2c-1.3-0.6-2.5-1.4-3.5-2.4c-2.5-2.5-3.7-5.9-3.5-9.3c0.2-3.5,1.9-6.7,4.7-8.8l25.5-19.7
	c5-3.8,10.4-6.9,16.3-9.1l17.1-6.5c7.2-2.7,14.7-4.1,22.4-4.1c4.4,0,8.9,0.5,13.2,1.4l30.5,6.5l-48,46.9c-0.8-0.5-1.6-1-2.4-1.4
	C79.1,89,68.8,88.2,59.7,91.4z M176.5,286l-5.5,13.8c-4.6,11.6,0.9,25,12.4,29.8c2.9,1.2,5.9,1.8,9,1.8c4.1,0,8.1-1.1,11.6-3.1
	l11.6-6.8l-5.3,11.2c-2,4.2-1.7,9,0.7,12.9c2.4,3.9,6.6,6.4,11.1,6.5c1.8,0.1,3.5,1,4.5,2.5c1,1.5,1.2,3.4,0.6,5.1l-0.6,1.4
	c-2.2,5.8-0.2,12.4,4.9,16l13.9,9.7c0.5,0.4,1.1,0.6,1.7,0.7l5.1,0.7l-5.5,4.6c-1.7,1.4-4.3,1.4-5.9-0.1l-17.6-15.3L193,352.1
	c-4.3-3.6-9.7-5.6-15.3-5.6c-1,0-2,0.1-3,0.2c-3.8,0.5-7.7-0.5-10.9-2.6l-25.6-17.3c-4-2.7-6.4-7.2-6.4-12.1c0-4.1-1.1-8.1-3.2-11.6
	l-10.2-17c-1.5-2.5-4.2-4-7.1-4c-3.8,0-7,2.4-8,6.1l-1,3.6c-3.7-10-6.9-20.1-9.7-30.4l15.1-5.5l22.5,10.3c0.2,0.1,0.3,0.1,0.5,0.2
	l48.1,15C177.9,282.9,177.1,284.4,176.5,286z M320.9,196.4c-8,4.9-14.5,11.8-18.8,20.1l-0.9,1.8c-3.5,6.8-9,12.3-15.8,15.8
	c-12.1,6.2-21.2,17.3-24.9,30.4l-3.2,11.2c0,0.2-0.2,0.5-0.7,0.5c-0.5,0-0.7-0.4-0.7-0.5c-2.9-8.9-11.1-14.9-20.4-14.9
	c-0.6,0-1.2,0-1.8,0.1l-25.9,2.2c-9.4,0.8-17.8,5-24,11.7l-50.5-15.7L109.4,248c-1-0.4-2-0.5-3-0.1l-16,5.8c-2.8-10.9-5-22-6.8-33.1
	c-1.6-10.4,0.2-21.2,5.2-30.5h242.4L320.9,196.4z M424.8,148.8c-1.7,3-4.7,5-8.2,5.5c-0.1,0-0.2,0-0.3,0c-1.1,0-1.7-0.7-1.9-1
	c-0.3-0.4-0.6-1.1-0.3-2.1c1.1-2.9,0.7-6-1.1-8.5c-2.1-3.1-6-4.6-9.7-3.8l-21.7,4.9c-3.3,0.7-5.8,3.1-6.8,6.2c-1,3.2-0.3,6.6,1.9,9
	l3.7,4.2c0.7,0.8,0.6,1.8,0.5,2.1c-0.1,0.4-0.4,1.2-1.5,1.6c-11.9,4.1-23.5,9.2-34.5,15.2H93.3c8.8-17.2,13.5-36.4,13.5-55.8
	c0-9.9-3.9-19.2-10.7-26.1l51.1-50c4.3,0.9,8.6,1.3,13,1.3c7.1,0,14-1.1,20.8-3.4l0.1,0c5.9-2,12-3,18.2-3c6.5,0,12.9,1.1,19,3.2
	l11.5,4c6.1,2.1,12.4,3.3,18.9,3.6l60.9,2.6c0.5,0,1,0,1.4-0.2l20.4-6.8c2.1-0.7,4.2-1.1,6.4-1.3c0,0,5-0.4,5.1-0.4c2,0,2.8,1.5,3,2
	c0.2,0.6,0.7,2.1-0.7,3.5c-4.3,4.3-9.7,7.7-15.5,9.7l-34.1,11.8c-4.2,1.5-7.8,4.4-10.1,8.2c-2.9,4.8-3.5,10.7-1.7,16
	c1.8,5.3,5.9,9.6,11.1,11.6l12.2,4.8c1,0.4,1.4,1.1,1.5,1.6c0.2,0.4,0.3,1.3-0.2,2.2c-1.8,3.2-1.8,7.1,0,10.3
	c1.8,3.2,5.1,5.3,8.8,5.5l4.5,0.2c3.8,0.2,7.4-1.6,9.4-4.8L359,90.5c1.2-1.8,3.2-2.9,5.4-2.9h8.9c2.5,0,4.7,1.4,5.8,3.6l2.1,4.1
	c2.5,4.9,7.4,8,12.9,8c2.6,0,5.2-0.7,7.4-2.1c1-0.6,2.1-0.9,3.3-0.9c2.6,0,4.9,1.6,6,3.9l14.6,34.7
	C426.7,142.2,426.5,145.8,424.8,148.8z"/>
</svg>
