<?xml version="1.0" encoding="utf-8"?>
<!-- Generator: Adobe Illustrator 19.2.1, SVG Export Plug-In . SVG Version: 6.00 Build 0)  -->
<svg version="1.1" id="Layer_1" xmlns="http://www.w3.org/2000/svg" xmlns:xlink="http://www.w3.org/1999/xlink" x="0px" y="0px"
	 viewBox="0 0 496.2 496.2" style="enable-background:new 0 0 496.2 496.2;" xml:space="preserve">
<style type="text/css">
	.st0{fill:#FFFFFF;}
</style>
<g transform="translate(1 1)">
	<g>
		<g>
			<path class="st0" d="M229.6,229.8c0-19.6-27.3-34.1-64-34.1s-64,14.5-64,34.1s27.3,34.1,64,34.1
				C202.3,264,229.6,249.5,229.6,229.8z M165.6,246.9c-28.2,0-46.9-10.2-46.9-17.1s18.8-17.1,46.9-17.1s46.9,10.2,46.9,17.1
				S193.8,246.9,165.6,246.9z"/>
			<path class="st0" d="M391.7,229.8c0-19.6-27.3-34.1-64-34.1s-64,14.5-64,34.1s27.3,34.1,64,34.1S391.7,249.5,391.7,229.8z
				 M327.7,246.9c-28.2,0-46.9-10.2-46.9-17.1s18.8-17.1,46.9-17.1c28.2,0,46.9,10.2,46.9,17.1S355.9,246.9,327.7,246.9z"/>
			<path class="st0" d="M118.7,153c5.1,0,8.5-3.4,8.5-8.5c0-5.1-3.4-8.5-8.5-8.5s-8.5,3.4-8.5,8.5C110.1,149.6,113.6,153,118.7,153z
				"/>
			<path class="st0" d="M118.7,409c-5.1,0-8.5,3.4-8.5,8.5s3.4,8.5,8.5,8.5s8.5-3.4,8.5-8.5S123.8,409,118.7,409z"/>
			<path class="st0" d="M374.7,409c-5.1,0-8.5,3.4-8.5,8.5s3.4,8.5,8.5,8.5s8.5-3.4,8.5-8.5S379.8,409,374.7,409z"/>
			<path class="st0" d="M144.3,118.9c5.1,0,8.5-3.4,8.5-8.5s-3.4-8.5-8.5-8.5s-8.5,3.4-8.5,8.5S139.2,118.9,144.3,118.9z"/>
			<path class="st0" d="M186.9,144.5c5.1,0,8.5-3.4,8.5-8.5c0-5.1-3.4-8.5-8.5-8.5s-8.5,3.4-8.5,8.5
				C178.4,141.1,181.8,144.5,186.9,144.5z"/>
			<path class="st0" d="M221.1,170.1c5.1,0,8.5-3.4,8.5-8.5s-3.4-8.5-8.5-8.5c-5.1,0-8.5,3.4-8.5,8.5S216,170.1,221.1,170.1z"/>
			<path class="st0" d="M246.7,136c5.1,0,8.5-3.4,8.5-8.5s-3.4-8.5-8.5-8.5s-8.5,3.4-8.5,8.5C238.1,132.5,241.6,136,246.7,136z"/>
			<path class="st0" d="M246.7,84.8c5.1,0,8.5-3.4,8.5-8.5c0-5.1-3.4-8.5-8.5-8.5s-8.5,3.4-8.5,8.5
				C238.1,81.3,241.6,84.8,246.7,84.8z"/>
			<path class="st0" d="M374.7,153c5.1,0,8.5-3.4,8.5-8.5c0-5.1-3.4-8.5-8.5-8.5s-8.5,3.4-8.5,8.5C366.1,149.6,369.6,153,374.7,153z
				"/>
			<path class="st0" d="M349.1,118.9c5.1,0,8.5-3.4,8.5-8.5s-3.4-8.5-8.5-8.5s-8.5,3.4-8.5,8.5S344,118.9,349.1,118.9z"/>
			<path class="st0" d="M306.4,144.5c5.1,0,8.5-3.4,8.5-8.5c0-5.1-3.4-8.5-8.5-8.5s-8.5,3.4-8.5,8.5
				C297.9,141.1,301.3,144.5,306.4,144.5z"/>
			<path class="st0" d="M272.3,170.1c5.1,0,8.5-3.4,8.5-8.5s-3.4-8.5-8.5-8.5s-8.5,3.4-8.5,8.5S267.2,170.1,272.3,170.1z"/>
			<path class="st0" d="M431,265.7c-3.7-4.1-7.9-6.6-11.6-8c8.9-39.3,7-66.3,6.5-70.5c0-59.7-20.5-108.4-59.7-143.4
				c-68.3-59.7-170.7-59.7-238.1,0c-40.1,35-60.6,83.6-60.6,143.4c-0.5,4.1-2.4,31.3,6.6,70.8c-3.5,1.5-7.4,3.9-10.8,7.7
				c-7.7,8.5-10.2,20.5-8.5,36.7c0.9,12.8,5.1,25.6,12.8,37.5l13.7,24.7c2.6,3.4,3.4,7.7,3.4,11.9c0,6.8-2.6,17.1-10.2,29.9
				c-5.1,7.7-6.8,16.2-4.3,24.7c6.8,23.9,23.9,37.5,47.8,37.5c0,0,1.7,0,3.4,0c6.8,0,22.2-0.9,33.3-11.1c6.9-6.4,11.5-14.3,13.7-24
				c14,17.5,30.3,35.9,46,49.6c9.4,7.7,20.5,11.9,32.4,11.9c11.9,0,23-4.3,32.4-11.9c15.7-14.1,32-32.6,46.1-50.1
				c2.3,9.6,6.8,17.4,13.7,23.6c11.9,11.1,27.3,11.9,33.3,11.9c1.7,0,3.4,0,3.4,0c23.9,0,41.8-13.7,48.6-37.5
				c1.7-8.5,0.9-17.1-4.3-24.7c-7.7-12.8-10.2-23-11.1-29.9c0-3.4,0.9-7.7,3.4-11.9l14.5-24.7c6.8-12.8,11.1-24.7,12.8-37.5
				C441.2,286.1,438.7,274.2,431,265.7z M152.8,417.6c0,11.9-3.4,20.5-9.4,26.5c-9.4,8.5-23.9,7.7-24.7,7.7
				c-17.1,0-28.2-8.5-31.6-23.9c-0.9-3.4,0-7.7,1.7-11.1c9.4-15.4,12.8-28.2,13.7-36.7c0.9-7.7-0.9-16.2-5.1-23l-14.5-24.7
				C76,322,72.6,311.7,71.7,301.5c-0.9-11.1,0-18.8,4.3-23.9c0.8-0.8,1.6-1.6,2.5-2.5c2.4,8.5,5.4,17.4,8.9,26.7
				c0.3,0.9,0.7,1.8,1,2.7c0.2,0.4,0.3,0.8,0.5,1.2c10,25.6,23.3,50.4,39.2,74.3c0.9,0.9,11.1,15.4,24.7,34.1L152.8,417.6
				L152.8,417.6z M268,469.6c-11.9,10.2-30.7,10.2-42.7,0c-23.9-21.3-49.9-54.5-66.2-76.7c-9.4-13-15.7-22.3-15.7-22.3
				c-23.9-34.1-41-70.8-50.3-108.4l-1.7-6.8c-9.2-40.1-6.8-67-6.8-67.5v-0.9c0-54.6,17.9-99,54.6-130.6
				c29.9-26.5,69.1-40.1,107.5-40.1s77.7,12.8,107.5,40.1c36.7,31.6,54.6,75.9,54.6,130.6v0.9c0,0.9,7.7,86.2-58,181.8
				C349.9,370.6,306.4,436.3,268,469.6z M422.5,299.8c-1.7,10.2-5.1,20.5-11.1,30.7l-14.5,24.7c-4.3,7.7-6,15.4-5.1,23
				c0.9,7.7,3.4,21.3,13.7,36.7c1.7,3.4,2.6,7.7,1.7,11.1c-4.3,17.1-15.4,25.6-33.3,25.6c0,0-14.5,0.9-23.9-7.7
				c-6-5.1-9.4-14.5-9.4-27.3v-2.6c12.7-16.4,21.5-29.6,24-34.3c10.8-15.6,19.8-30.9,27.2-45.7c10-19.7,18-40,23.9-60.8
				c0.9,0.9,1.7,1.7,2.6,2.6C422.5,281,423.3,288.7,422.5,299.8z"/>
			<path class="st0" d="M223.6,326.3c-3.4,3.4-3.4,8.5,0,11.9c1.7,1.7,3.4,2.6,6,2.6s4.3-0.9,6-2.6l11.1-11.1l11.1,11.1
				c1.7,1.7,3.4,2.6,6,2.6s4.3-0.9,6-2.6c3.4-3.4,3.4-8.5,0-11.9l-14.5-14.5V264c0-5.1-3.4-8.5-8.5-8.5s-8.5,3.4-8.5,8.5v47.8
				L223.6,326.3z"/>
			<path class="st0" d="M289.3,392H204c-5.1,0-8.5,3.4-8.5,8.5s3.4,8.5,8.5,8.5h85.3c5.1,0,8.5-3.4,8.5-8.5S294.5,392,289.3,392z"/>
		</g>
	</g>
</g>
<path class="st0" d="M166.6,239.4c5.1,0,8.5-3.4,8.5-8.5s-3.4-8.5-8.5-8.5c-5.1,0-8.5,3.4-8.5,8.5S161.5,239.4,166.6,239.4z"/>
<path class="st0" d="M328.7,239.4c5.1,0,8.5-3.4,8.5-8.5s-3.4-8.5-8.5-8.5s-8.5,3.4-8.5,8.5S323.6,239.4,328.7,239.4z"/>
</svg>
