<?xml version="1.0" encoding="utf-8"?>
<!-- Generator: Adobe Illustrator 19.2.1, SVG Export Plug-In . SVG Version: 6.00 Build 0)  -->
<svg version="1.1" id="Layer_1" xmlns="http://www.w3.org/2000/svg" xmlns:xlink="http://www.w3.org/1999/xlink" x="0px" y="0px"
	 viewBox="0 0 512 512" style="enable-background:new 0 0 512 512;" xml:space="preserve">
<style type="text/css">
	.st0{fill:#FFFFFF;}
</style>
<g transform="translate(1 1)">
	<g>
		<g>
			<path class="st0" d="M488.8,242.2h-11.9c-28.2,0-51.2,23-51.2,51.2c0,37.5-30.7,68.3-68.3,68.3h-93.9v-25.6h11.9h56.3
				c2.6,0,4.3-0.9,6-1.7c29-29.9,46.1-70,45.2-111.8c0-41-16.2-78.5-45.2-105.8c-1.7-1.7-3.4-2.6-6-2.6h-56.3h-37.5V71.5V20.3
				c0-2.6-0.9-5.1-2.6-6.8c-17.9-13.7-44.4-13.7-62.3,0c-11.1,8.5-29,9.4-40.1,0c-2.6-1.7-6.8-2.6-9.4-0.9c-3.4,1.7-5.1,4.3-5.1,7.7
				v51.2c0,2.6,0.9,5.1,3.4,6.8c8.5,6.8,19.6,10.2,30.7,10.2c11.1,0,22.2-3.4,30.7-10.2c10.3-7.9,26.4-9.2,37.5-1.9v37.7h-21.3
				h-51.2h-38.4c-3.4,0-6,2.6-7.7,6s-0.9,6.8,1.7,9.4c25.6,23.9,39.3,57.2,40.1,93c0.9,36.7-13.7,72.5-40.1,99
				c-2.6,2.6-2.6,6-1.7,9.4c0.9,3.4,4.3,5.1,7.7,5.1h39.3h51.2h11.9v25.6H80.1c-7.7,0-14.5-4.3-18.8-11.9
				c-6-11.1-13.7-19.6-13.7-19.6l-2.6-2.6H-1v110.9c0,37.5,30.7,68.3,68.3,68.3h324.3c52.1,0,93.9-41.8,93.9-93.9V306.2
				c0-2.6,1.7-4.3,4.3-4.3c11.9,0,21.3-9.4,21.3-21.3v-16.2C511,252.4,500.8,242.2,488.8,242.2z M365.9,222.6
				c0.9,35.8-12.8,70.8-37.5,96.4h-37.2c20.9-27.6,32.8-61.4,32-96.4c0-34.1-11.3-65.9-31.8-91.3h36.9
				C352.3,156,365.1,187.6,365.9,222.6z M268.7,131.3c23.9,24.7,36.7,56.3,37.5,91.3c0.9,35.8-12.8,70.8-37.5,96.4h-5.1H240
				c18.9-25,30.4-55.1,31.9-86.6c0-0.5,0-0.9,0.1-1.4c0-0.4,0-0.9,0-1.3c0.1-2.7,0.1-5.3,0-8c0-33.3-11.1-64.9-31.6-90.5
				L268.7,131.3L268.7,131.3z M173.1,64.7c-10.2,8.5-26.5,9.4-37.5,2.6V34.8c15.4,5.1,35,2.6,47.8-7.7c10.2-8.5,26.5-9.4,37.5-2.6
				V57C205.5,51.9,185.9,54.5,173.1,64.7z M128.7,319c21.3-27.3,33.3-62.3,32.4-97.3c0-33.3-11.1-64.9-31.6-90.5h35.9
				c24.4,23.8,37.5,56.3,38.3,91.3c0.8,35.5-12.7,70.2-37.6,96.4L128.7,319L128.7,319z M188.4,319c21.3-27.3,33.3-62.3,32.4-97.3
				c0-33.3-11.1-64.9-31.6-90.5h27.4c15,14.6,25.8,32.6,32,52.4c0,0,0,0.1,0,0.1c0.3,1,0.6,2,0.9,3c0,0.1,0,0.1,0,0.2
				c0.3,1,0.5,1.9,0.8,2.9c0,0.1,0,0.1,0.1,0.2c0.2,1,0.5,1.9,0.7,2.9c0,0.1,0,0.2,0.1,0.3c0.2,0.9,0.4,1.9,0.6,2.8
				c0,0.1,0.1,0.3,0.1,0.4c0.2,0.9,0.4,1.8,0.5,2.7c0,0.2,0.1,0.4,0.1,0.5c0.2,0.8,0.3,1.7,0.4,2.5c0,0.2,0.1,0.5,0.1,0.7
				c0.1,0.8,0.2,1.5,0.3,2.3c0,0.3,0.1,0.7,0.1,1c0.1,0.7,0.2,1.3,0.3,2c0.1,0.4,0.1,0.9,0.2,1.3c0.1,0.5,0.1,1,0.2,1.6
				c0.1,0.6,0.1,1.2,0.2,1.7c0,0.4,0.1,0.7,0.1,1.1c0.1,0.7,0.1,1.5,0.2,2.2c0,0.1,0,0.2,0,0.3c0.1,2.1,0.2,4.1,0.3,6.2
				c0.8,35.5-12.7,70.2-37.6,96.4h-5.1L188.4,319L188.4,319z M229.4,336.1h17.1v25.6h-17.1V336.1z M493.9,280.6
				c0,2.6-1.7,4.3-4.3,4.3c-11.9,0-21.3,9.4-21.3,21.3v106.7c0,42.7-34.1,76.8-76.8,76.8H67.3c-28.2,0-51.2-23-51.2-51.2v-93.9h21.3
				c2.6,2.6,6,7.7,8.5,12.8c6.8,13.7,19.6,21.3,34.1,21.3h132.3h51.2h93.9c46.9,0,85.3-38.4,85.3-85.3c0-18.8,15.4-34.1,34.1-34.1
				h11.9c2.6,0,5.1,2.6,5.1,5.1L493.9,280.6L493.9,280.6z"/>
			<path class="st0" d="M129.6,398.4l-21,21c-3.9-1.9-8.4-2.7-13.2-2.2c-7.7,0.9-14.5,4.3-19.6,9.4c-5.1,6-8.5,12.8-9.4,19.6
				c-0.9,7.7,1.7,14.5,6.8,19.6c5.1,4.3,11.1,6.8,17.1,6.8c7.7,0,16.2-3.4,22.2-9.4c5.1-6,8.5-12.8,9.4-19.6c0.5-4.3-0.1-8.4-1.7-12
				l21.3-21.3c3.4-3.4,3.4-8.5,0-11.9S133,394.9,129.6,398.4z M101.4,450.4c-5.1,5.1-11.9,6.8-15.4,3.4c-1.7-1.7-1.7-4.3-1.7-6
				c0-2.6,1.7-6,4.3-9.4c2.6-2.6,6-4.3,9.4-4.3c0,0,0,0,0.9,0c1.4,0,2.7,0,4.1,0.4c0.3,0.4,0.7,0.9,1.1,1.3c0.4,0.4,0.8,0.7,1.2,1
				c0.5,1.4,0.5,2.9,0.5,4.1C105.7,444.4,104,447.9,101.4,450.4z"/>
			<path class="st0" d="M300.2,398.4l-21,21c-3.9-1.9-8.4-2.7-13.2-2.2c-7.7,0.9-14.5,4.3-19.6,9.4c-5.1,6-8.5,12.8-9.4,19.6
				c-0.9,7.7,1.7,14.5,6.8,19.6c5.1,4.3,11.1,6.8,17.1,6.8c7.7,0,16.2-3.4,22.2-9.4c5.1-6,8.5-12.8,9.4-19.6c0.5-4.3-0.1-8.4-1.6-12
				l21.3-21.3c3.4-3.4,3.4-8.5,0-11.9C308.8,394.9,303.6,394.9,300.2,398.4z M272.1,450.4c-5.1,5.1-11.9,6.8-15.4,3.4
				c-1.7-1.7-1.7-4.3-1.7-6c0-3.4,1.7-6.8,4.3-9.4s6-4.3,9.4-4.3c0,0,0,0,0.9,0c1.4,0,2.7,0,4.1,0.4c0.3,0.4,0.7,0.9,1.1,1.3
				c0.4,0.4,0.8,0.7,1.2,1c0.5,1.4,0.5,2.9,0.5,4.1C276.3,444.4,274.6,447.9,272.1,450.4z"/>
			<path class="st0" d="M385.6,398.4l-21,21c-3.9-1.9-8.4-2.7-13.2-2.2c-7.7,0.9-14.5,4.3-19.6,9.4c-5.1,6-8.5,12.8-9.4,19.6
				c-0.9,7.7,1.7,14.5,6.8,19.6c5.1,4.3,11.1,6.8,17.1,6.8c7.7,0,16.2-3.4,22.2-9.4c5.1-6,8.5-12.8,9.4-19.6c0.5-4.3-0.1-8.4-1.6-12
				l21.3-21.3c3.4-3.4,3.4-8.5,0-11.9C394.1,394.9,389,394.9,385.6,398.4z M357.4,450.4c-5.1,5.1-11.9,6.8-15.4,3.4
				c-1.7-1.7-1.7-4.3-1.7-6c0-3.4,1.7-6.8,4.3-9.4s6-4.3,9.4-4.3c0,0,0,0,0.9,0c1.4,0,2.7,0,4.1,0.4c0.3,0.4,0.7,0.9,1.1,1.3
				c0.4,0.4,0.8,0.7,1.2,1c0.5,1.4,0.5,2.9,0.5,4.1C361.7,444.4,360,447.9,357.4,450.4z"/>
			<path class="st0" d="M214.9,398.4l-21,21c-3.9-1.9-8.4-2.7-13.2-2.2c-7.7,0.9-14.5,4.3-19.6,9.4c-5.1,6-8.5,12.8-9.4,19.6
				c-0.9,7.7,1.7,14.5,6.8,19.6c5.1,4.3,11.1,6.8,17.1,6.8c7.7,0,16.2-3.4,22.2-9.4c5.1-6,8.5-12.8,9.4-19.6c0.5-4.3-0.1-8.4-1.6-12
				l21.3-21.3c3.4-3.4,3.4-8.5,0-11.9S218.3,394.9,214.9,398.4z M186.7,450.4c-5.1,5.1-11.9,6.8-15.4,3.4c-1.7-1.7-1.7-4.3-1.7-6
				c0-3.4,1.7-6.8,4.3-9.4s6-4.3,9.4-4.3c0,0,0,0,0.9,0c1.4,0,2.7,0,4.1,0.4c0.3,0.4,0.7,0.9,1.1,1.3c0.4,0.4,0.8,0.7,1.2,1
				c0.5,1.4,0.5,2.9,0.5,4.1C191,444.4,189.3,447.9,186.7,450.4z"/>
		</g>
	</g>
</g>
</svg>
