<?xml version="1.0" encoding="utf-8"?>
<!-- Generator: Adobe Illustrator 19.2.1, SVG Export Plug-In . SVG Version: 6.00 Build 0)  -->
<svg version="1.1" id="Layer_1" xmlns="http://www.w3.org/2000/svg" xmlns:xlink="http://www.w3.org/1999/xlink" x="0px" y="0px"
	 viewBox="0 0 512 512" style="enable-background:new 0 0 512 512;" xml:space="preserve">
<style type="text/css">
	.st0{fill:#52DADD;}
	.st1{fill:#EACE75;}
	.st2{fill:#AFE2DD;}
	.st3{fill:#FFFFFF;}
</style>
<g>
	<path class="st0" d="M229.5,128c-4.9,0-8.8-4-8.8-8.8V22.1c0-4.9,4-8.8,8.8-8.8s8.8,4,8.8,8.8v97.1C238.3,124,234.4,128,229.5,128"
		/>
	<path class="st1" d="M220.7,119.2H105.9c59.6,56.6,58.6,153.3,0,211.9h114.8C279.2,272.5,280.3,175.8,220.7,119.2"/>
	<path class="st2" d="M498,251.6h-12.5c-24.4,0-44.1,19.7-44.1,44.1c0,43.9-35.5,79.4-79.4,79.4H75.2c-11.7,0-22-6.8-27.4-17.1
		c-5.2-10-12.5-18.2-12.5-18.2H0v105.9c0,34.2,27.6,61.8,61.8,61.8h335.4c48.8,0,88.3-39.5,88.3-88.3V309c0-7.3,5.9-13.2,13.2-13.2
		c7.3,0,13.2-5.9,13.2-13.2v-16.9C512,257.9,505.7,251.6,498,251.6"/>
	<path class="st1" d="M273.7,331c58.6-58.6,59.6-155.2,0-211.9h-53c59.6,56.6,58.6,153.3,0,211.9H273.7z"/>
	<path class="st3" d="M220.7,331c58.6-58.6,59.6-155.2,0-211.9h-53c59.6,56.6,58.6,153.3,0,211.9H220.7z"/>
	<polygon class="st0" points="220.7,375.2 256,375.2 256,331 220.7,331 	"/>
	<path class="st3" d="M238.3,13.2v53c-15-12.4-47.4-11.4-61.8,0s-38,12.4-53,0v-53c15,12.4,38.5,11.4,53,0S223.5,1.1,238.3,13.2"/>
	<path class="st0" d="M105.9,445.8c-2.3,0-4.5-0.9-6.2-2.6c-3.5-3.5-3.5-9,0-12.5l26.5-26.5c3.5-3.5,9-3.5,12.5,0
		c3.5,3.5,3.5,9,0,12.5l-26.5,26.5C110.5,444.9,108.2,445.8,105.9,445.8"/>
	<path class="st1" d="M102.8,465.1c-8.6,8.6-21.2,10-28.1,3.1c-6.9-6.9-5.5-19.5,3.1-28.1c8.6-8.6,21.2-10,28.1-3.1
		C112.8,443.9,111.4,456.4,102.8,465.1"/>
	<path class="st0" d="M282.2,445.8c-2.3,0-4.5-0.9-6.2-2.6c-3.5-3.5-3.5-9,0-12.5l26.5-26.5c3.5-3.5,9-3.5,12.5,0
		c3.5,3.5,3.5,9,0,12.5l-26.5,26.5C286.7,444.9,284.5,445.8,282.2,445.8"/>
	<path class="st1" d="M279.1,465.1c-8.6,8.6-21.2,10-28.1,3.1s-5.5-19.5,3.1-28.1c8.6-8.6,21.2-10,28.1-3.1
		C289.1,443.9,287.7,456.4,279.1,465.1"/>
	<path class="st0" d="M370.5,445.8c-2.3,0-4.5-0.9-6.2-2.6c-3.5-3.5-3.5-9,0-12.5l26.5-26.5c3.5-3.5,9-3.5,12.5,0
		c3.4,3.5,3.4,9,0,12.5l-26.5,26.5C375,444.9,372.7,445.8,370.5,445.8"/>
	<path class="st1" d="M367.4,465.1c-8.6,8.6-21.2,10-28.1,3.1c-6.9-6.9-5.5-19.5,3.1-28.1c8.6-8.6,21.2-10,28.1-3.1
		C377.4,443.9,376,456.4,367.4,465.1"/>
	<path class="st0" d="M193.9,445.8c-2.3,0-4.5-0.9-6.2-2.6c-3.5-3.5-3.5-9,0-12.5l26.5-26.5c3.5-3.5,9-3.5,12.5,0
		c3.5,3.5,3.5,9,0,12.5l-26.5,26.5C198.4,444.9,196.2,445.8,193.9,445.8"/>
	<path class="st1" d="M190.8,465.1c-8.6,8.6-21.2,10-28.1,3.1s-5.5-19.5,3.1-28.1c8.6-8.6,21.2-10,28.1-3.1
		C200.8,443.9,199.4,456.4,190.8,465.1"/>
	<path class="st3" d="M335.5,119.2h-61.8c59.6,56.6,58.6,153.3,0,211.9h61.8C394,272.5,395,175.8,335.5,119.2"/>
</g>
</svg>
