<?xml version="1.0" encoding="utf-8"?>
<!-- Generator: Adobe Illustrator 19.2.1, SVG Export Plug-In . SVG Version: 6.00 Build 0)  -->
<svg version="1.1" id="Layer_1" xmlns="http://www.w3.org/2000/svg" xmlns:xlink="http://www.w3.org/1999/xlink" x="0px" y="0px"
	 viewBox="0 0 512 512" style="enable-background:new 0 0 512 512;" xml:space="preserve">
<style type="text/css">
	.st0{fill:#FFFFFF;}
</style>
<g>
	<g>
		<g>
			<path class="st0" d="M270.5,435.3c-3.3,0-7.3,1.7-10.3,4.8c-4.8,4.8-6.2,11.9-3,15.1c3.2,3.2,10.3,1.8,15.1-3
				c4.8-4.8,6.2-11.9,3-15.1C274.1,435.8,272.4,435.3,270.5,435.3z"/>
			<path class="st0" d="M100.1,435.3c-3.3,0-7.3,1.7-10.3,4.8c-4.8,4.8-6.2,11.9-3,15.1c3.2,3.2,10.3,1.8,15.1-3
				c4.8-4.8,6.2-11.9,3-15.1C103.7,435.8,102,435.3,100.1,435.3z"/>
			<path class="st0" d="M355.9,435.3c-3.3,0-7.3,1.7-10.3,4.8c-4.8,4.8-6.2,11.9-3,15.1c3.2,3.2,10.3,1.8,15.1-3
				c4.8-4.8,6.2-11.9,3-15.1C359.5,435.8,357.8,435.3,355.9,435.3z"/>
			<path class="st0" d="M185.2,435.3c-3.3,0-7.3,1.7-10.3,4.8c-4.8,4.8-6.2,11.9-3,15.1c3.2,3.2,10.3,1.8,15.1-3
				c4.8-4.8,6.2-11.9,3-15.1C188.8,435.8,187.1,435.3,185.2,435.3z"/>
			<path class="st0" d="M489.9,243.2h-12c-28.2,0-51.2,23-51.2,51.2c0,37.6-30.6,68.3-68.3,68.3h-93.9v-25.6h-12.1l14.6-14.6
				c26.1-26.1,40.8-62.3,40.3-99.3c-0.5-36-14.7-69.1-40.2-93.3l-14.7-14.7h-13.5V72.5V21.3c0-1.2-0.3-2.4-0.8-3.5
				c-0.1-0.3-0.4-0.6-0.6-0.9c-0.4-0.7-0.9-1.4-1.5-2c-0.1-0.1-0.1-0.2-0.2-0.3c-17.1-14-44.3-14-61.9-0.1
				c-11.4,9-29.6,9.1-40.5,0.1c-2.5-2.1-6.1-2.6-9.1-1.1c-3,1.4-4.9,4.4-4.9,7.7v51.2c0,2.6,1.1,5,3.1,6.6
				c8.5,7.1,19.6,10.6,30.8,10.6c11.1,0,22.3-3.5,31.1-10.5c10.4-8.3,26.4-8.9,37.4-2.2v38.2h3.5l2.5,2.5
				c28.6,27.2,44.8,64.7,45.3,105.3c0.5,41.6-16,82.3-45.3,111.6l-2.5,2.5h-12.1v25.6H81.3c-7.8,0-15.1-4.6-18.9-12
				c-5.5-10.4-13-18.9-13.3-19.3l-2.6-2.9H0v110.9c0,37.6,30.6,68.3,68.3,68.3h324.3c51.8,0,93.9-42.1,93.9-93.9V307.2
				c0-2.4,1.9-4.3,4.3-4.3c11.8,0,21.3-9.6,21.3-21.3v-16.3C512,253.1,502.1,243.2,489.9,243.2z M142.6,411.4l-20.9,20.9
				c4.1,9.9,1.4,22.7-7.7,31.9l0,0c-6.4,6.4-14.6,9.7-22.4,9.7c-6.3,0-12.4-2.2-16.8-6.7c-10-10-8.6-27.6,3-39.2
				c9.2-9.2,22-11.8,31.9-7.7l20.9-20.9c3.3-3.3,8.7-3.3,12.1,0C145.9,402.7,145.9,408.1,142.6,411.4z M227.6,411.4l-20.9,20.9
				c4.1,9.9,1.4,22.7-7.7,31.9h0c-6.4,6.4-14.6,9.7-22.4,9.7c-6.3,0-12.4-2.2-16.9-6.7c-10-10-8.6-27.6,3-39.2
				c9.2-9.2,22-11.8,31.9-7.7l20.9-20.9c3.3-3.3,8.7-3.3,12.1,0C231,402.7,231,408.1,227.6,411.4z M313,411.4l-20.9,20.9
				c4.1,9.9,1.4,22.7-7.7,31.9h0c-6.4,6.4-14.6,9.7-22.4,9.7c-6.3,0-12.4-2.2-16.9-6.7c-10-10-8.6-27.6,3-39.2
				c9.2-9.2,22-11.8,31.9-7.7l20.9-20.9c3.3-3.3,8.7-3.3,12.1,0S316.3,408.1,313,411.4z M398.3,411.4l-20.9,20.9
				c4.1,9.9,1.4,22.7-7.7,31.9h0c-6.4,6.4-14.6,9.7-22.4,9.7c-6.3,0-12.4-2.2-16.9-6.7c-10-10-8.6-27.6,3-39.2
				c9.2-9.2,22-11.8,31.9-7.7l20.9-20.9c3.3-3.3,8.7-3.3,12.1,0C401.6,402.7,401.6,408.1,398.3,411.4z"/>
			<path class="st0" d="M222,223c0.5,41.6-16,82.3-45.3,111.6l-2.5,2.5h27.1l14.6-14.6c26.1-26.1,40.8-62.3,40.3-99.3
				c-0.5-36-14.7-69.1-40.2-93.3l-14.7-14.7h-27.1l2.5,2.5C205.3,145,221.5,182.4,222,223z"/>
			<path class="st0" d="M103.1,331.8c1.3,3.2,4.4,5.3,7.9,5.3h39.1l14.6-14.6c26.1-26.1,40.8-62.3,40.3-99.3
				c-0.5-36-14.7-69.1-40.2-93.3l-14.7-14.7h-39.1c-3.5,0-6.6,2.1-7.9,5.4c-1.3,3.2-0.5,6.9,2,9.4c25.4,24.2,39.7,57.3,40.2,93.3
				c0.5,37-14.2,73.2-40.3,99.3C102.5,325,101.7,328.6,103.1,331.8z"/>
			<path class="st0" d="M324.4,223c0.5,41.6-16,82.3-45.3,111.6l-2.5,2.5h56.2c2.3,0,4.4-0.9,6-2.5c29.3-29.3,45.8-70,45.3-111.6
				c-0.5-40.6-16.7-78.1-45.5-105.4c-1.6-1.5-3.7-2.3-5.9-2.3h-56.2l2.5,2.5C307.7,145,323.9,182.4,324.4,223z"/>
		</g>
	</g>
</g>
</svg>
