<?xml version="1.0" encoding="utf-8"?>
<!-- Generator: Adobe Illustrator 19.2.1, SVG Export Plug-In . SVG Version: 6.00 Build 0)  -->
<svg version="1.1" id="Layer_1" xmlns="http://www.w3.org/2000/svg" xmlns:xlink="http://www.w3.org/1999/xlink" x="0px" y="0px"
	 viewBox="0 0 207.8 90" style="enable-background:new 0 0 207.8 90;" xml:space="preserve">
<style type="text/css">
	.st0{fill:#FFFFFF;}
</style>
<g id="XMLID_107_">
	<g id="XMLID_304_">
		<g id="XMLID_305_">
			<g id="XMLID_441_">
				<g id="XMLID_563_">
					<path id="XMLID_564_" class="st0" d="M24.5,52.3C-0.9,40.6,2.1,14.2,2.1,2h45.1C47.1,14.4,50,40.6,24.5,52.3z M2.1,0l-2,2
						c0,1.4,0,3.3-0.1,4.2c-0.1,14.5,0.8,36.9,24.2,47.7c12.4-5.8,21.9-15.7,24.2-31C50,14.1,49,5.7,49,0H2.1z"/>
				</g>
				<g id="XMLID_552_">
					<path id="XMLID_104_" class="st0" d="M14.9,32.3c-1.8,2-3.6,3.8-4.2,4.5c-0.1,0.1-0.1,0.3-0.1,0.4c0.1,0.1,0.3,0.3,0.4,0.3
						s0.1,0.1,0.4-0.1c0.1-0.1,2.1-2,4.3-4.2c0,0-0.3-0.1-0.4-0.3C15.2,32.5,14.9,32.3,14.9,32.3z"/>
					<g id="XMLID_560_">
						<path id="XMLID_103_" class="st0" d="M16.1,31.8c0.4,0.4,1.2,0.9,1.2,0.9l-0.4,0.4c-0.1,0.1-0.8-0.1-1.3-0.7s-0.9-1.1-0.8-1.2
							l0.4-0.4C15.3,30.8,15.6,31.4,16.1,31.8z"/>
					</g>
					<g id="XMLID_553_">
						<g id="XMLID_557_">
							<g id="XMLID_558_">
								<path id="XMLID_102_" class="st0" d="M36.6,36.8c0.4-0.4,0.4-0.7,0.4-0.7l0.4,0.1c0.1,0.1,0,0.7-0.4,0.9
									c-0.4,0.4-0.9,0.5-1.1,0.4L35.9,37C35.9,37,36.2,37,36.6,36.8z"/>
							</g>
						</g>
						<g id="XMLID_554_">
							<g id="XMLID_555_">
								<path id="XMLID_101_" class="st0" d="M36,36c0.3-0.3,0.3-0.5,0.3-0.5l0.3,0.1c0.1,0.1,0,0.4-0.3,0.7
									c-0.3,0.3-0.7,0.4-0.8,0.3v-0.1C35.5,36.4,35.7,36.2,36,36z"/>
							</g>
						</g>
					</g>
				</g>
				<g id="XMLID_550_">
					<path id="XMLID_100_" class="st0" d="M37.3,15.5l-0.5,0.4c-0.7,0.3-2.1-0.9-3.3-2c-0.8-0.7-2.4-2.4-1.8-3.2l0.3-0.3
						c-0.1-0.1-0.3-0.1-0.4-0.3c-0.1-0.1-0.3-0.1-0.5-0.1c-0.1,0-0.4,0.1-0.4,0.3c0,0.3,0.1,0.8,0.4,1.2c0.3,0.5,1.2,2,3.2,3.4
						c0.9,0.7,2,1.2,2.6,1.4c0.1,0,0.7,0.1,0.8,0c0.3-0.3,0-0.5-0.1-0.9C37.4,15.7,37.3,15.5,37.3,15.5z"/>
				</g>
				<path id="XMLID_99_" class="st0" d="M36.4,10.9"/>
				<path id="XMLID_98_" class="st0" d="M35.3,10.5"/>
				<path id="XMLID_543_" class="st0" d="M16.9,8.2c0,0.1,0,0.3,0,0.5c0,0.5,0.4,4.5,2.8,7.2c2,2.5,7.9,9.5,8.8,10.7
					c0.9,1.1,6.7,7.9,7.5,8.7l0.1,0.1c0,0-0.1,0.1-0.3,0.3c-0.1,0.1-0.4,0.1-0.4,0.1l-0.1-0.1C35.1,35.4,25,25.4,24,24.4
					c-0.9-0.9-6.2-5.9-8.3-7.4c-1.8-1.2-2.6-1.8-4.7-2c0,0-1.4,0-1.6-0.1v-0.1c0.9-0.4,2.9-1.4,4.3-3c2.1-2.1,2.9-3.6,3-3.7
					C16.7,8.2,16.9,8,16.9,8.2z M18.3,16.7c-2.1-2.1-2.9-2.5-3.8-3c-0.5-0.3-0.9-0.4-1.2-0.3c-0.4,0.1-1.1,0.4-1.4,0.8
					c-0.3,0.3-0.3,0.4-0.1,0.4c0.1,0.1,1.2,0.3,2.2,0.8c1.7,0.9,4.9,3.2,11.9,10.3c3.6,3.7,9.1,9.4,9.1,9.4l0.1-0.1
					c0,0-8-9.1-14.4-15.8C19.8,18.2,19,17.4,18.3,16.7z"/>
				<path id="XMLID_95_" class="st0" d="M37.2,15.4"/>
				<path id="XMLID_539_" class="st0" d="M12,12.4c-0.9,0.8-2.1,1.4-3,1.8c-0.7,0.3-1.6,0-0.9-1.3c0.1-0.4,0.5-0.8,0.9-1.3
					c1.2-1.6,3.4-3.6,5.5-4.7c0.7-0.4,1.2-0.5,1.4-0.5c0.5,0,0.5,0.5,0.4,0.9C16.2,8.2,14.6,10.3,12,12.4z M12.7,11.2
					c0.3-0.3,1.1-1.1,1.7-1.8c0.8-0.9,1.2-1.7,1.2-1.7s0.1-0.3,0.1-0.4S15.6,7.1,15.4,7c-0.1-0.1-1.8,0.8-2.6,1.4
					c-0.1,0.1-0.3,0.4-0.4,0.8C12.4,9.5,13.1,10.1,12.7,11.2C12.5,11.2,12.7,11.2,12.7,11.2z"/>
				<path id="XMLID_92_" class="st0" d="M16.9,8.4"/>
				<g id="XMLID_535_">
					<path id="XMLID_91_" class="st0" d="M23.7,25c-0.4,0.4-7,6.7-7,6.7c0.1,0.1,0.4,0.3,0.4,0.3s6.1-5.8,6.5-6.2
						c0.1-0.1,0.4-0.4,0.5-0.4L23.7,25z"/>
					<path id="XMLID_90_" class="st0" d="M36.1,17.3c0.1,0,0.1,0,0.3,0c0.1,0,0.3,0,0.3,0s0.1-0.1,0-0.1c-0.3,0-0.9-0.1-1.4-0.5
						c-0.4,0.1-1.1,0.3-1.7,0.7c-0.9,0.4-3,1.7-7.2,5.5l0.4,0.4c1.4-1.3,3.4-3,4.5-3.7c1.8-1.2,3.3-1.8,4.2-2
						C35.3,17.4,35.7,17.3,36.1,17.3z"/>
				</g>
				<g id="XMLID_532_">
					<path id="XMLID_89_" class="st0" d="M31.9,14.2c-1.2-1.2-1.6-2.1-1.7-2.8l0,0c0,0,0,0-0.1,0c0,0,0,0,0,0.1
						c-0.1,1.2,0,1.7-0.5,3c-0.4,1.1-1.2,2.4-2.2,3.7c-0.7,0.7-1.7,1.8-2.6,3l0.7,0.8c0.1-0.1,0.3-0.3,0.5-0.5
						c3.3-3.4,6.1-5.5,7-6.3C32.6,14.9,32.3,14.5,31.9,14.2z"/>
					<path id="XMLID_88_" class="st0" d="M22.4,23.9c-1.3,1.6-2.8,3-3.2,3.6C18.9,27.8,16,31,16,31s0.1,0.1,0.1,0.3
						c0.1,0.1,0.3,0.3,0.3,0.3s6.2-6.5,6.7-6.9L22.4,23.9z"/>
				</g>
				<path id="XMLID_87_" class="st0" d="M33.1,10V9.9c-0.3-0.1-0.5-0.1-0.7,0c-0.4,0.4,0.5,2,2,3.4c1.6,1.4,3.2,2.2,3.6,1.7
					c0.1-0.1,0.1-0.5-0.1-0.9C35.6,14.4,33.1,11.3,33.1,10z"/>
				<path id="XMLID_528_" class="st0" d="M39.9,10.5c-0.3,0.3-0.5,0.8-0.8,1.1c0.3-0.3,0.4-0.8,0.1-2.1c-0.1-0.9-0.3-1.3-0.4-1.6
					c-0.1-0.1-0.1-0.1-0.3,0c-0.1,0.1-0.4,0.7-0.4,0.7c0,0.1,0,0-0.4-1.3c-0.3-0.9-0.4-1.4-0.4-1.8c0-0.1,0-0.3,0-0.4s0-0.1-0.4,0
					c-0.1,0-1.3,0.9-1.8,2.1c-0.3,0.7-0.3,1.3-0.4,0.9c0-0.7,0-0.7-0.1-0.7C34.3,7.5,33,8.2,33,10c0,1.6,2.9,4.9,5.3,4.1
					c0,0,1.8-0.4,1.8-2C40.2,10.4,39.9,10.5,39.9,10.5z M39.4,12.5c-0.1,0.1-0.4,0.5-0.9,0.8s-1.3,0.3-1.7,0.1
					c-1.7-0.5-2.8-2.4-2.8-2.4c-1.4-2.2,0.5-3.2,0.7-3.2c0,0-0.1,0.8-0.1,1.2c0.1,0.4,0.4,0.8,0.4,1.1c0.1,0.5,0,0.8-0.1,1.1
					c0,0.1,0.1,0,0.1,0s0,0,0.1-0.1c0.3-0.1,0.5-0.5,0.4-0.8c-0.1-0.7-0.7-1.2-0.1-2.5c0.4-0.9,1.2-1.7,1.3-1.7
					c0.1-0.1,0.3-0.3,0.3-0.1c0,0.1,0.1,0.8,0.3,1.2c0.1,0.4,0.5,1.3,0.4,2.4c-0.1,1.2-2,2.5-2.2,2.5c-0.1,0-0.3,0.1-0.3,0.1
					c-0.1,0.1,0,0.1,0.1,0.1c0.1,0,0.9-0.1,1.6-0.7c0.5-0.4,1.1-0.9,1.2-1.3c0.4-0.7,0.5-1.4,0.5-1.6c0-0.1,0.1-0.1,0.1,0
					c0,0.1,0.1,0.5,0.3,0.8c0,0.1,0.1,0.5,0.1,1.1c0,0.9-0.3,1.3-0.8,1.7c-0.3,0.3-0.7,0.3-0.9,0.4h-0.1c0,0-0.1,0,0,0.1h0.1
					c0.3,0.1,0.9,0.1,1.3-0.1c0.1-0.1,0.4-0.3,0.8-0.7c0.1-0.1,0.3-0.4,0.3-0.3C39.5,11.9,39.5,12.3,39.4,12.5z"/>
			</g>
			<g id="XMLID_306_">
				<g id="XMLID_307_">
					<path id="XMLID_409_" class="st0" d="M145.6,2.6c7.8,0,12.7,7.1,12.7,14.4c0,7.4-4.6,12-10.5,12c-7.9,0-12.7-7.1-12.7-14.5
						C135.1,8.2,138.9,2.6,145.6,2.6z M146.1,30.2c8.8,0,15-5.8,15-14.8c0-8.3-6.2-14.1-14.4-14.1c-8.2,0-14.6,6.1-14.6,14.4
						C132.2,24.1,137.4,30.2,146.1,30.2z"/>
					<path id="XMLID_314_" class="st0" d="M169.2,4.7c0-1.4,0.8-1.4,2.2-1.4c3.8,0,7.4,1.6,7.4,6.3s-3.7,5.5-5.4,5.5
						c-1.8,0-4.2,0.1-4.2-0.5V4.7z M176.8,15.4c2.8-1.1,4.9-3.7,4.9-6.7c0-7.5-8.6-6.7-9.2-6.7c-2,0-4.2,0.1-6.5,0.1
						c-2,0-1.8-0.1-2.5-0.1c-0.5,0-0.8,0.3-0.8,0.5c0,1.3,3.3-0.3,3.3,3.4v19.6c0,2.9-2.8,2.4-2.8,3.4c0,0.3,0.1,0.4,0.4,0.4
						c1.4,0,2.9-0.1,4.3-0.1c3.2,0,4.1,0.1,4.5,0.1c0.3,0,0.7,0.1,0.7-0.3c0-1.3-4.1-0.1-4.1-3.4v-8.2c0-0.4-0.3-1.1,1.1-1.1
						c4.3,0,3.8-0.1,5.1,2.1l4.3,6.7c1.4,2.2,3,4.2,5.8,4.2c0.4,0,3.4,0,3.4-0.5c0-0.9-2.8,0.5-5.5-3.8L176.8,15.4z"/>
					<path id="XMLID_312_" class="st0" d="M188.2,4.5c-1.1-1.7-2.9-1.2-2.9-1.8c0-0.3,0.3-0.5,0.5-0.5c1.1,0,1.7,0.1,4.3,0.1
						c1.3,0,2.4-0.1,2.8-0.1c0.3,0,0.8,0,0.8,0.4c0,0.7-1.8,0.7-1.8,1.8c0,0.7,0.5,1.2,0.7,1.6l4.6,7.5c0.3,0.5,0.5,0.7,0.8,0.7
						c0.1,0,0.4-0.3,0.8-0.8l4-6.5c0.3-0.4,0.8-1.1,0.8-2.1c0-1.8-2.9-1.1-2.9-2c0-0.5,0.4-0.5,0.8-0.5c0.9,0,1.8,0.1,2.8,0.1
						c1.1,0,2.2-0.1,3.3-0.1c0.3,0,0.4,0.3,0.4,0.5c0,0.4-0.7,0.5-0.9,0.8c-1.1,0.7-1.6,1.7-2.1,2.6l-5.4,8.4
						c-0.7,0.9-0.9,1.2-0.9,1.7v9.5c0,3.4,3.2,2.2,3.2,3.4c0,0.4-0.4,0.4-0.9,0.4c-0.5,0-2.8-0.1-4.2-0.1c-1.7,0-3.2,0.1-3.4,0.1
						c-0.4,0-0.5,0-0.5-0.5c0-1.1,3-0.1,3-2.8V17c0-0.8-0.5-1.4-0.9-2L188.2,4.5z"/>
					<path id="XMLID_310_" class="st0" d="M127.7,25.8c0.1,3.3,3,1.8,3,3.2c0,0.4-0.5,0.4-0.9,0.4c-0.8,0-2.1-0.1-3.7-0.1
						c-1.2,0-2.4,0.1-3.3,0.1c-0.4,0-0.4-0.1-0.4-0.4c0-1.2,2.5-0.3,2.4-3.2l-1.1-15c0-0.9-0.1-1.4-0.4-1.4s-0.7,0.4-1.1,1.2
						l-8,16.3c-0.3,0.4-0.8,2-1.2,2s-0.7-0.8-0.8-1.2l-8.2-17.3c-0.1-0.3-0.3-0.4-0.5-0.4c-0.1,0-0.3,0.1-0.3,0.5l-1.2,13.6
						c-0.1,5.1,3.4,3.4,3.4,4.9c0,0.4-0.4,0.4-0.9,0.4c-0.5,0-2.2-0.1-3.4-0.1c-2,0-2.6,0.1-3.4,0.1c-0.3,0-0.4-0.1-0.4-0.5
						c0-1.3,2.5,0.3,2.8-3.8c0.5-6.3,0.9-10.4,0.9-14.5c0-9.1-3-7-3-8.3c0-0.4,0.3-0.4,0.7-0.4c0.7,0,1.4,0.1,2.1,0.1
						c0.7,0,1.3-0.1,2.1-0.1c0.5,0,0.7,0.7,0.8,1.1l9.2,19.6c0.4,0.8,0.5,1.2,0.8,1.2c0.1,0,0.5-0.8,1.2-2.1l9.2-18.4
						c0.3-0.4,0.5-1.3,1.1-1.3c0.4,0,1.6,0.1,1.8,0.1c0.9,0,1.2-0.1,1.8-0.1c0.3,0,0.4,0.3,0.4,0.5c0,1.2-3-0.4-2.9,4.2L127.7,25.8z
						"/>
					<path id="XMLID_308_" class="st0" d="M80.8,13.3c0,1.3-0.1,1.3,1.4,1.3h4.2c4,0,3-3.2,4-3.2c0.3,0,0.4,0.4,0.4,0.8
						c0,1.3,0,2.6,0,4c0,1.1,0,2,0,3c0,0.4-0.1,0.5-0.4,0.5c-1.2,0,0.1-3.4-3.2-3.4h-5.7c-0.8,0-0.7,0.7-0.7,1.2v7.1
						c0,2.2-0.3,3.2,2.9,3.2c9,0,10.3-4,10.7-4c0.3,0,0.3,0.4,0.3,0.5c0,1.4-1.1,2.8-2,3.8c-1.2,1.4-2.1,1.3-3.8,1.3
						c-2.9,0-5.8-0.3-8.8-0.1c-1.6,0-3.2,0.1-4.7,0.1c-0.4,0-0.5-0.1-0.5-0.4c0.1-0.5,0.5-0.4,1.7-1.1c1.1-0.5,1.1-1.6,1.1-3.4V7
						c0-1.7,0-3.6-2.1-4c-0.3-0.1-1.2-0.1-1.2-0.7c0-0.3,0.3-0.5,1.3-0.5c7.2,0,9.2,0.1,10.9,0.1c0.8,0,4.3-0.1,5.5-0.1
						c0.3,0,0.4,0.4,0.4,0.8c0,4.3-0.5,4.6-0.8,4.6c-0.9,0-0.3-1.8-0.9-2.8c-1.1-1.3-5-1.1-6.6-1.1c-3.7,0-3.7-0.1-3.7,2.5v7.4H80.8
						z"/>
				</g>
			</g>
		</g>
	</g>
	<g id="XMLID_277_">
		<path id="XMLID_302_" class="st0" d="M79.9,49.5c0,1.1-0.1,1.7,1.2,1.7c4.5,0,4.2-2.4,4.9-2.4c0.1,0,0.3,0,0.3,0.4
			c0,1.4-1.1,2.9-2.5,2.9c-2.8,0-3.7-0.1-4.6-0.1c-0.5,0-1.3,0.1-2.2,0.1c-0.3,0-0.4-0.1-0.4-0.1c0-0.8,1.3,0.1,1.3-2.1v-8.6
			c0-1.6-2-1.1-2-1.7c0-0.1,0.1-0.3,0.5-0.3c0.7,0,1.7,0.1,2.5,0.1c1.6,0,1.7-0.1,2-0.1c0.4,0,0.5,0,0.5,0.3c0,0.7-1.3,0-1.3,1.4
			L79.9,49.5L79.9,49.5z"/>
		<path id="XMLID_300_" class="st0" d="M92,49.9c0,2.2,2,1.4,2,2c0,0.1-0.1,0.3-0.5,0.3c-0.7,0-1.3-0.1-2.8-0.1
			c-0.8,0.1-1.6,0.1-2,0.1c-0.1,0-0.3-0.1-0.3-0.3c0-0.7,1.3-0.1,1.3-1.8v-8.6c0-1.6-2-1.2-2-1.7c0-0.3,0.4-0.3,0.7-0.3
			c0.7,0,1.4,0.1,2,0.1c0.7,0,1.3-0.1,2.4-0.1c0.5,0,0.7,0,0.7,0.3c0,0.7-1.3,0-1.3,1.7v8.4H92z"/>
		<path id="XMLID_296_" class="st0" d="M98.4,42.2c0-2.5-1.8-1.4-1.8-2.4c0-0.3,0.3-0.3,0.3-0.3c0.1,0,0.3,0.1,1.1,0.1
			c1.6,0,3-0.1,4.6-0.1c4.3,0,4.5,2.6,4.5,3c0,1.2-0.7,2.1-2,2.5l0,0c2.2,0.5,2.9,1.6,2.9,3.2c0,2.4-1.7,4-4.6,4
			c-2.6,0-3.6-0.1-4.5-0.1c-0.4,0-0.9,0.1-1.3,0.1c-0.4,0-0.7,0-0.7-0.3c0-0.7,1.6-0.1,1.6-1.8C98.4,50.1,98.4,42.2,98.4,42.2z
			 M100.7,44c0,0.9,0.1,0.9,1.2,1.1h1.1c1.3,0,1.8-0.7,1.8-2c0-1.7-1.3-2.8-2.9-2.8c-1.2,0-1.3,0.7-1.3,1.7L100.7,44L100.7,44z
			 M100.7,49.3c0,1.7,0.5,2.2,2.2,2.2c1.7,0,2.6-1.2,2.6-2.9c0-1.1-0.5-2.6-3.8-2.6c-1.1,0-1.1,0.4-1.1,1.4
			C100.7,47.4,100.7,49.3,100.7,49.3z"/>
		<path id="XMLID_293_" class="st0" d="M111.9,41.8c0-2-2-1.3-2-2c0-0.1,0.1-0.3,0.4-0.3c0.8,0,0.9,0.1,2.1,0.1
			c1.2,0,2.4-0.1,3.7-0.1c4,0,4.3,2.5,4.3,3.4c0,1.2-0.5,1.8-1.1,2.2c-0.5,0.4-1.1,0.5-1.1,0.8c0,0.1,1.4,2.8,2.6,5
			c0.1,0.3,0.5,0.3,0.7,0.3s0.4-0.1,0.5-0.1c0.1,0,0.3,0.1,0.3,0.3c0,0.5-1.2,0.9-1.8,0.9c-1.4,0-2-1.2-2.5-2.2l-1.4-2.9
			c-0.4-0.8-0.7-0.9-1.4-0.9c-0.9,0-0.8,0.1-0.8,0.8v3.2c0,2,1.8,1.2,1.8,1.8c0,0.1-0.1,0.3-0.5,0.3c-0.8-0.1-1.2-0.1-2-0.1
			c-0.9,0-1.8,0-2.8,0c-0.1,0-0.5,0-0.5-0.3c0-0.5,1.4,0,1.4-2.2V41.8z M114,44.9c0,0.4,0.7,0.4,1.2,0.4c2.8,0,2.9-1.1,2.9-2.1
			c0-1.7-1.1-3-2.8-3c-0.7,0-1.2,0-1.2,1.1L114,44.9L114,44.9z"/>
		<path id="XMLID_290_" class="st0" d="M127.6,47.8c-0.3,0-0.7,0.1-1.1,1.3c-0.1,0.4-0.4,0.9-0.4,1.4c0,1.3,2,1.1,2,1.4
			c0,0.4-0.5,0.3-0.9,0.3c-0.5,0-1.1-0.1-1.7-0.1c-0.5,0-1.1,0.1-1.6,0.1c-0.3,0-0.5,0-0.5-0.1c0-0.4,0.9-0.3,1.3-1.3l4.9-10.9
			c0.1-0.3,0.3-0.7,0.4-0.7s0.1,0,0.4,0.5l4.9,10.9c0.5,1.3,1.6,0.5,1.6,1.2c0,0.3-0.1,0.3-0.7,0.3c-0.7,0-1.2-0.1-2.4-0.1
			c-0.8,0-1.4,0.1-2,0.1c-0.3,0-0.5,0-0.5-0.3c0-0.5,1.3-0.3,1.3-1.4c0-0.4-0.1-0.7-0.3-1.2c-0.5-1.4-0.7-1.6-1.2-1.6L127.6,47.8
			L127.6,47.8z M130.6,46.8c0.3,0,0.5,0,0.5-0.1c0-0.3-0.1-0.4-0.1-0.7l-1.4-3.3c-0.1-0.1,0-0.1-0.1-0.1c0,0-0.1,0-0.3,0.3l-1.3,3.2
			c-0.1,0.3-0.1,0.4-0.1,0.7c0,0.1,0.3,0.1,0.5,0.1C128.2,46.8,130.6,46.8,130.6,46.8z"/>
		<path id="XMLID_287_" class="st0" d="M140,41.8c0-2-2-1.3-2-2c0-0.1,0.1-0.3,0.4-0.3c0.8,0,0.9,0.1,2.1,0.1c1.2,0,2.4-0.1,3.7-0.1
			c4,0,4.3,2.5,4.3,3.4c0,1.2-0.5,1.8-1.1,2.2s-1.1,0.5-1.1,0.8c0,0.1,1.6,2.8,2.8,5c0.1,0.3,0.5,0.3,0.7,0.3c0.1,0,0.4-0.1,0.5-0.1
			s0.3,0.1,0.3,0.3c0,0.5-1.2,0.9-1.8,0.9c-1.4,0-2-1.2-2.5-2.2l-1.4-2.9c-0.4-0.8-0.8-0.9-1.6-0.9c-0.9,0-0.8,0.1-0.8,0.8v3.2
			c0,2,1.8,1.2,1.8,1.8c0,0.1-0.1,0.3-0.5,0.3c-0.3,0-0.8-0.1-1.6-0.1c-0.9,0-1.8,0.1-2.8,0.1c-0.3,0-0.5,0-0.5-0.3
			c0-0.5,1.4,0,1.4-2.2v-8H140z M142.2,44.9c0,0.4,0.7,0.4,1.2,0.4c2.8,0,2.9-1.1,2.9-2.1c0-1.7-1.1-3-2.8-3c-0.7,0-1.2,0-1.2,1.1
			L142.2,44.9L142.2,44.9z"/>
		<path id="XMLID_285_" class="st0" d="M156.6,49.9c0,2.2,2,1.4,2,2c0,0.1-0.1,0.3-0.5,0.3c-0.7,0-1.3-0.1-2.8-0.1
			c-0.8,0-1.6,0.1-2,0.1c-0.1,0-0.3-0.1-0.3-0.3c0-0.7,1.3-0.1,1.3-1.8v-8.6c0-1.6-2-1.2-2-1.7c0-0.3,0.4-0.3,0.7-0.3
			c0.7,0,1.4,0.1,2,0.1c0.7,0,1.3-0.1,2.4-0.1c0.5,0,0.7,0,0.7,0.3c0,0.7-1.3,0-1.3,1.7v8.4H156.6z"/>
		<path id="XMLID_283_" class="st0" d="M165.1,44.1c0,0.8,0,0.9,0.8,0.9h1.2c1.6,0,1.6-1.7,2-1.7c0.1,0,0.3,0,0.4,0.4l0.1,3.2
			c0,0.3,0.1,0.9-0.3,0.9c-0.5,0-0.1-1.8-2-1.8H166c-0.8,0-0.8,0.3-0.8,1.3v2.2c0,1.1-0.1,1.7,1.2,1.7c4.5,0,4.2-2.4,4.9-2.4
			c0.1,0,0.1,0,0.1,0.4c0,1.4-1.1,2.9-2.5,2.9c-2.8,0-3.8-0.1-4.7-0.1c-0.5,0-1.3,0.1-2.2,0.1c-0.3,0-0.4-0.1-0.4-0.1
			c0-0.8,1.3,0.1,1.3-2.1v-8.4c0-1.6-2-1.1-2-1.7c0-0.1,0.1-0.3,0.4-0.3c0.8,0,2,0.1,4.7,0.1c1.3,0,2.5-0.1,4.1-0.1
			c0.3,0,0.4,0.1,0.4,0.4l0.1,1.8c0,0.3,0.1,0.8-0.3,0.8c-0.8,0,0.5-2.1-2.9-2.1c-2.2,0-2.2,0-2.2,1.3v2.4H165.1z"/>
		<path id="XMLID_281_" class="st0" d="M174.5,48.5c0-0.3-0.3-0.8,0.3-0.8c0.3,0,0.3,0.1,0.4,0.4c0.5,1.7,1.7,3.3,3.7,3.3
			c1.4,0,2.5-0.9,2.5-2.2c0-1.6-1.2-1.7-4.1-3c-1.6-0.7-2.6-1.4-2.6-3.3c0-2.1,1.4-3.6,3.6-3.6c1.4,0,2.2,0.7,2.8,0.7
			c0.3,0,0.7-0.3,0.9-0.3c0.3,0,0.3,0.3,0.3,0.7l0.1,2.4c0,0.4,0,0.7-0.4,0.7c-0.4,0-0.7-3.3-3.8-3.3c-1.2,0-2,0.7-2,1.8
			s1.1,1.4,3.4,2.5c2,0.8,3.2,1.6,3.2,4s-1.7,4-4,4c-1.1,0-2-0.4-3-0.7c-0.4-0.1-0.4-0.3-0.5-0.7L174.5,48.5z"/>
		<path id="XMLID_278_" class="st0" d="M193.2,43.9c0-0.4-0.4-0.7-0.4-1.7c0-1.7,1.3-2.8,3-2.8c1.2,0,2.2,0.7,2.5,0.7
			s0.3-0.3,0.5-0.3c0.1,0,0.1,0.1,0.1,0.4c0,0.9,0.1,1.8,0.3,2.8c0,0.1,0,0.3-0.3,0.3c-0.1,0-0.3-0.1-0.4-0.4
			c-0.4-1.4-1.4-2.8-3-2.8c-0.8,0-1.3,0.5-1.3,1.3c0,2.5,5.9,7.6,6.5,7.6c0.1,0,0.7-0.8,0.7-1.8c0-2.2-2.1-1.3-2.1-2
			c0-0.1,0.1-0.3,0.4-0.3c0.3,0,0.7,0.1,1.8,0.1c0.9,0,1.2-0.1,1.4-0.1c0.1,0,0.3,0,0.3,0.3c0,0.4-0.7,0.1-0.7,0.8
			c-0.4,2.6-1.1,3.4-1.1,3.6c0,0.7,2,1.7,2.4,1.7c0.7,0,0.7-0.1,0.9-0.1c0.1,0,0.3,0,0.3,0.3c0,0.3-0.9,1.2-2.2,1.2
			c-1.1,0-2.4-0.9-2.9-1.4c-1.1,0.9-3,1.4-4.5,1.4c-4.1,0-5.4-2.8-5.4-4.3C190.4,44.8,193.2,44,193.2,43.9z M199.5,50.6
			c0-0.4-4.2-2.9-5.7-5.5c-0.1-0.3-0.4-0.5-0.5-0.5c-0.4,0-1.3,0.5-1.3,1.8c0,2,2.5,4.9,5.3,4.9C198.1,51.3,199.5,50.9,199.5,50.6z"
			/>
	</g>
	<g id="XMLID_215_">
		<path id="XMLID_275_" class="st0" d="M79.7,70.4c0,2,1.8,1.2,1.8,1.7c0,0.1-0.1,0.3-0.5,0.3c-0.7,0-1.2,0-2.5,0
			c-0.7,0-1.4,0-1.8,0c-0.1,0-0.1-0.1-0.1-0.1c0-0.5,1.2-0.1,1.2-1.7v-7.8c0-1.4-1.8-1.1-1.8-1.6c0-0.3,0.4-0.3,0.5-0.3
			c0.7,0,1.3,0,1.8,0c0.5,0,1.2,0,2.1,0c0.5,0,0.5,0,0.5,0.3c0,0.5-1.2,0-1.2,1.4V70.4z"/>
		<path id="XMLID_273_" class="st0" d="M85,64c0-3.2-1.8-2.1-1.8-2.8c0-0.1,0.1-0.3,0.3-0.3c0.3,0,0.7,0,0.9,0c0.4,0,0.8,0,1.7,0
			c0.5,0,0.3,0.1,0.7,0.4l6.5,7.1c0.3,0.3,0.4,0.4,0.5,0.4c0.1,0,0.1-0.1,0.1-0.7v-5.4c0-1.4-2-1.2-2-1.7c0-0.1,0-0.3,0.3-0.3
			c0.3,0,0.8,0,1.8,0s1.6,0,1.7,0c0.3,0,0.3,0.1,0.3,0.3c0,0.5-1.3,0.1-1.3,1.8v9c0,0.4,0,0.5-0.1,0.5c-0.3,0-0.3-0.1-0.4-0.3
			l-7.8-8.4c-0.1-0.1-0.3-0.3-0.3-0.3c-0.1,0-0.1,0.1-0.1,0.3v5.5c0,3.2,2.1,2,2.1,2.8c0,0.3-0.4,0.3-0.7,0.3c-0.8,0-1.3,0-1.8,0
			c-0.5,0-0.9,0-1.4,0c-0.1,0-0.5,0.1-0.5-0.1c0-0.7,1.6-0.4,1.6-2L85,64L85,64z"/>
		<path id="XMLID_271_" class="st0" d="M101.3,65.1c0,0.7,0,0.8,0.7,0.8h1.1c1.4,0,1.4-1.4,1.7-1.4c0.1,0,0.3,0,0.3,0.4l0.1,2.9
			c0,0.3,0.1,0.8-0.3,0.8c-0.5,0-0.1-1.7-1.7-1.7H102c-0.8,0-0.7,0.1-0.7,1.2v2.4c0,1.8,1.8,1.4,1.8,1.8c0,0.3-0.4,0.3-0.8,0.3
			c-0.7,0-1.2,0-2,0c-0.5,0-1.2,0-2.1,0c-0.3,0-0.3-0.1-0.3-0.1c0-0.8,1.2,0.1,1.2-1.8v-7.8c0-1.4-1.8-0.9-1.8-1.6
			c0-0.1,0.1-0.3,0.4-0.3c0.7,0,1.8,0,4.3,0c1.2,0,2.2,0,3.7,0c0.3,0,0.3,0.1,0.3,0.3v1.6c0,0.3,0.1,0.8-0.3,0.8
			c-0.8,0,0.5-1.8-2.6-1.8c-2,0-2,0-2,1.2L101.3,65.1L101.3,65.1z"/>
		<path id="XMLID_268_" class="st0" d="M114,60.7c3.2,0,5.5,2.1,5.5,5.5c0,2.2-0.9,6.2-6.2,6.2c-3.3,0-5.4-2.2-5.4-5.4
			C107.9,63.4,110.2,60.7,114,60.7z M113.9,71.7c2.8,0,3.7-2.2,3.7-4.9c0-3.6-2-5.4-4.1-5.4c-2.8,0-3.6,2.2-3.6,4.6
			C109.9,68.4,111,71.8,113.9,71.7z"/>
		<path id="XMLID_257_" class="st0" d="M122.8,63c0-1.8-1.7-1.2-1.7-1.8c0-0.1,0.1-0.3,0.4-0.3c0.8,0,0.9,0,1.8,0c1.1,0,2.2,0,3.3,0
			c3.6,0,3.8,2.2,3.8,3c0,1.1-0.5,1.6-0.9,2c-0.5,0.4-0.9,0.5-0.9,0.7s1.3,2.4,2.5,4.5c0.1,0.3,0.4,0.3,0.5,0.3
			c0.1,0,0.3-0.1,0.5-0.1c0.1,0,0.3,0.1,0.3,0.3c0,0.5-1.1,0.8-1.7,0.8c-1.3,0-1.8-1.1-2.2-2l-1.3-2.5c-0.4-0.7-0.7-0.8-1.4-0.8
			s-0.8,0.1-0.8,0.7v2.8c0,1.7,1.6,1.1,1.6,1.6c0,0.1-0.1,0.3-0.5,0.3c-0.3,0-0.7,0-1.4,0c-0.9,0-1.7,0-2.5,0c-0.1,0-0.5,0-0.5-0.3
			c0-0.5,1.3,0,1.3-2C122.8,70,122.8,63,122.8,63z M124.8,65.8c0,0.4,0.7,0.4,1.1,0.4c2.5,0,2.5-0.9,2.5-1.8c0-1.6-0.9-2.8-2.5-2.8
			c-0.7,0-1.1,0-1.1,0.9V65.8z"/>
		<path id="XMLID_255_" class="st0" d="M136.1,69.6c-0.1,2.8,1.7,1.8,1.7,2.5c0,0,0,0.3-0.4,0.3c-0.5,0-0.9,0-1.7,0s-1.3,0-1.6,0
			c-0.3,0-0.3-0.1-0.3-0.3c0-0.5,1.3-0.1,1.4-1.8l0.3-6.5c0.1-2.6-1.6-1.8-1.6-2.6c0-0.1,0.1-0.3,0.1-0.3c0.3,0,0.4,0,0.9,0
			c0.4,0,0.9,0,1.4,0c0.1,0,0.4,0,0.5,0.5l3.6,7.8c0,0.1,0.1,0.3,0.3,0.3c0.1,0,0.3-0.3,0.3-0.4l3.7-7.8c0-0.1,0.1-0.3,0.4-0.3
			c0.4,0,0.7,0,0.9,0s0.7,0,1.1,0c0.4,0,0.5,0,0.5,0.1c0,0.5-1.6,0-1.6,1.8l0.3,7.1c0.1,2.1,1.6,1.4,1.6,2c0,0.3-0.3,0.3-0.8,0.3
			c-0.5,0-0.9,0-1.4,0c-1.1,0-1.4,0-1.8,0s-0.8,0-0.8-0.3c0-0.5,1.3,0,1.2-1.8l-0.3-4.9c0-0.5,0-0.8-0.1-0.8c0,0-0.3,0.3-0.5,0.8
			l-3,6.3c-0.1,0.3-0.1,0.4-0.4,0.4c-0.3,0-0.3-0.3-0.4-0.4l-3.2-7c0-0.1-0.1-0.3-0.1-0.3c-0.1,0-0.1,0.3-0.1,0.4V69.6z"/>
		<path id="XMLID_248_" class="st0" d="M153,68.4c-0.3,0-0.7,0-0.9,1.2c-0.1,0.3-0.4,0.9-0.4,1.3c0,1.2,1.7,0.9,1.7,1.3
			c0,0.4-0.5,0.3-0.8,0.3c-0.5,0-1.1,0-1.6,0c-0.5,0-0.9,0-1.4,0c-0.3,0-0.5,0-0.5-0.1c0-0.4,0.8-0.3,1.2-1.2l4.3-9.8
			c0.1-0.3,0.1-0.5,0.4-0.5c0.1,0,0.1,0,0.4,0.5l4.3,9.9c0.5,1.2,1.4,0.5,1.4,1.1c0,0.3-0.1,0.3-0.5,0.3c-0.5,0-1.1,0-2.1,0
			c-0.7,0-1.3,0-1.7,0c-0.3,0-0.5,0-0.5-0.1c0-0.5,1.2-0.3,1.2-1.3c0-0.4-0.1-0.7-0.3-1.1c-0.5-1.3-0.7-1.4-1.1-1.4H153L153,68.4
			L153,68.4z M155.8,67.5c0.3,0,0.5,0,0.5-0.1c0-0.3-0.1-0.4-0.1-0.7l-1.3-2.9c-0.1-0.1,0-0.1-0.1-0.1c0,0-0.1,0-0.1,0.1l-1.4,2.9
			c-0.1,0.1-0.1,0.4-0.1,0.7c0,0.1,0.3,0.1,0.5,0.1H155.8z"/>
		<path id="XMLID_241_" class="st0" d="M165.5,62.7c0-0.8-0.1-0.9-0.8-0.9h-1.3c-1.8,0-1.3,2.1-2.1,2.1c-0.4,0-0.3-0.4-0.3-0.5
			l0.3-2.1c0-0.1,0-0.4,0.3-0.4c1.4,0,2.5,0,4.9,0c2.4,0,3,0,4.5,0c0.3,0,0.3,0.3,0.3,0.4l0.4,1.4c0,0.1,0.3,0.8-0.3,0.8
			c-0.7,0-0.1-1.8-2-1.7h-1.2c-0.7,0-0.5,0.1-0.5,0.9V70c0,2,2.1,1.6,2.1,2s-0.3,0.4-0.8,0.4c-0.7,0-1.2,0-2.2,0c-1.1,0-1.6,0-2.2,0
			c-0.3,0-0.5,0-0.5-0.4c0-0.7,1.8,0.1,1.8-1.7v-7.5H165.5z"/>
		<path id="XMLID_237_" class="st0" d="M176.8,70.4c0,2,1.8,1.2,1.8,1.7c0,0.1-0.1,0.3-0.5,0.3c-0.7,0-1.2,0-2.5,0
			c-0.7,0-1.4,0-1.8,0c-0.1,0-0.1-0.1-0.1-0.1c0-0.5,1.2-0.1,1.2-1.7v-7.8c0-1.4-1.8-1.1-1.8-1.6c0-0.3,0.4-0.3,0.5-0.3
			c0.7,0,1.3,0,1.8,0c0.5,0,1.2,0,2.1,0c0.5,0,0.5,0,0.5,0.3c0,0.5-1.2,0-1.2,1.4V70.4z"/>
		<path id="XMLID_232_" class="st0" d="M186.1,60.7c3.2,0,5.5,2.1,5.5,5.5c0,2.2-0.9,6.2-6.2,6.2c-3.3,0-5.4-2.2-5.4-5.4
			C180,63.4,182.1,60.7,186.1,60.7z M185.9,71.7c2.8,0,3.7-2.2,3.7-4.9c0-3.6-2-5.4-4.1-5.4c-2.8,0-3.6,2.2-3.6,4.6
			S183,71.8,185.9,71.7z"/>
		<path id="XMLID_229_" class="st0" d="M194.6,64c0-3.2-1.8-2.1-1.8-2.8c0-0.1,0.1-0.3,0.3-0.3c0.3,0,0.7,0,0.9,0c0.4,0,0.8,0,1.7,0
			c0.5,0,0.3,0.1,0.7,0.4l6.5,7.1c0.3,0.3,0.4,0.4,0.5,0.4c0.1,0,0.1-0.1,0.1-0.7v-5.4c0-1.4-2-1.2-2-1.7c0-0.1,0-0.3,0.3-0.3
			s0.8,0,1.8,0c1.1,0,1.6,0,1.7,0c0.3,0,0.3,0.1,0.3,0.3c0,0.5-1.3,0.1-1.3,1.8v9c0,0.4,0,0.5-0.1,0.5c-0.3,0-0.3-0.1-0.4-0.3
			l-7.8-8.4c-0.1-0.1-0.3-0.3-0.3-0.3c-0.1,0-0.1,0.1-0.1,0.3v5.5c0,3.2,2.1,2,2.1,2.8c0,0.3-0.4,0.3-0.7,0.3c-0.8,0-1.3,0-1.8,0
			c-0.5,0-0.9,0-1.4,0c-0.1,0-0.5,0.1-0.5-0.1c0-0.7,1.6-0.4,1.6-2L194.6,64L194.6,64z"/>
	</g>
	<g id="XMLID_108_">
		<path id="XMLID_209_" class="st0" d="M78.1,82.4c0-0.7-0.1-0.7-0.7-0.7h-0.7c-1.4,0-1.1,1.7-1.6,1.7c-0.3,0-0.1-0.3-0.1-0.4
			l0.3-1.7c0-0.1,0-0.3,0.3-0.3c1.2,0,1.6,0,3.4,0s2.6,0,3.8,0c0.1,0,0.1,0.1,0.3,0.3l0.1,1.2c0,0.1,0.1,0.7-0.1,0.7
			c-0.5,0-0.1-1.4-1.6-1.3h-1.1c-0.5,0-0.7,0-0.7,0.7v5.7c0,1.6,1.6,1.2,1.6,1.6c0,0.3-0.3,0.3-0.7,0.3c-0.5,0-0.9,0-1.7,0
			c-0.8,0-1.3,0-1.7,0c-0.3,0-0.4,0-0.4-0.3c0-0.5,1.4,0.1,1.4-1.4v-5.9H78.1z"/>
		<path id="XMLID_207_" class="st0" d="M90.8,84.2c0,0.5,0,0.7,0.5,0.7h0.8c1.1,0,1.2-1.2,1.3-1.2c0.1,0,0.3,0,0.3,0.3l0.1,2.2
			c0,0.1,0.1,0.7-0.3,0.7c-0.4,0,0-1.3-1.3-1.3h-0.9c-0.5,0-0.5,0.1-0.5,0.9V88c0,0.8,0,1.2,0.9,1.2c3.2,0,2.9-1.7,3.4-1.7
			c0,0,0.1,0,0.1,0.3c0,0.9-0.8,2-1.7,2c-2,0-2.6,0-3.3,0c-0.4,0-0.9,0-1.6,0c-0.1,0-0.3,0-0.3-0.1c0-0.5,0.9,0.1,0.9-1.4v-5.7
			c0-1.2-1.4-0.8-1.4-1.2c0-0.1,0.1-0.3,0.3-0.3c0.5,0,1.4,0,3.3,0c0.9,0,1.7,0,2.9,0c0.1,0,0.3,0.1,0.3,0.3v1.2
			c0,0.1,0.1,0.5-0.3,0.5c-0.5,0,0.4-1.4-2-1.4c-1.6,0-1.6,0-1.6,0.9C90.8,82.5,90.8,84.2,90.8,84.2z"/>
		<path id="XMLID_205_" class="st0" d="M108.3,83.7c0,0.1,0,0.4-0.1,0.4c-0.3,0-0.3-0.3-0.4-0.4c-0.7-1.2-1.7-2.2-3.2-2.2
			c-1.8,0-2.9,1.7-2.9,3.4c0,1.7,1.1,4.2,3.4,4.2c2,0,2.8-1.7,3.2-1.7c0,0,0.1,0,0.1,0.1c0,0.5-1.3,2.4-4.1,2.4
			c-3.7,0-4.2-3.2-4.2-4.2c0-2.1,1.3-4.9,4.5-4.9c1.6,0,2.5,0.8,2.9,0.8c0.3,0,0.3-0.4,0.4-0.4c0,0,0.1,0,0.1,0.1L108.3,83.7z"/>
		<path id="XMLID_165_" class="st0" d="M122.4,88.2c0,1.6,1.3,1.2,1.3,1.6c0,0.1-0.1,0.1-0.3,0.1c-0.4,0-1.2,0-1.7,0
			c-0.4,0-0.9,0-1.6,0c-0.1,0-0.3,0-0.3-0.1c0-0.4,0.9-0.1,0.9-1.3v-2.2c0-0.5,0-0.7-0.5-0.7h-3.4c-0.5,0-0.7,0.1-0.7,0.7v2
			c0,1.6,1.6,1.1,1.6,1.6c0,0.1,0,0.1-0.4,0.1c-0.5,0-0.9,0-1.8,0c-0.5,0-1.1,0-1.7,0c-0.1,0-0.3,0-0.3-0.1c0-0.5,1.1,0,1.1-1.6
			v-5.7c0-1.3-1.4-0.8-1.4-1.3c0-0.1,0.4-0.3,0.7-0.3c0.4,0,0.8,0,1.4,0c0.8,0,1.3,0,1.6,0c0.1,0,0.3,0,0.3,0.1c0,0.4-0.9,0-0.9,1.2
			v2c0,0.4,0,0.5,0.3,0.5h3.7c0.4,0,0.4-0.3,0.4-0.5v-1.7c0-1.4-1.4-0.9-1.4-1.3c0-0.3,0.1-0.3,0.3-0.3c0.5,0,0.8,0,1.6,0
			c0.7,0,1.2,0,1.7,0c0.3,0,0.3,0,0.3,0.1c0,0.5-0.9,0-0.9,1.2v5.9H122.4z"/>
		<path id="XMLID_162_" class="st0" d="M130.2,83.4c0-2.4-1.4-1.6-1.4-2.2c0-0.1,0-0.3,0.3-0.3c0.3,0,0.5,0,0.7,0c0.3,0,0.7,0,1.3,0
			c0.4,0,0.3,0.1,0.5,0.3l5,5.5c0.1,0.1,0.3,0.3,0.4,0.3s0.1-0.1,0.1-0.5v-4c0-1.2-1.6-0.9-1.6-1.3c0-0.1,0-0.3,0.3-0.3
			c0.3,0,0.5,0,1.4,0c0.8,0,1.2,0,1.3,0c0.3,0,0.3,0.1,0.3,0.1c0,0.4-1.1,0.1-1.1,1.4v7.1c0,0.3,0,0.4-0.1,0.4
			c-0.1,0-0.3-0.1-0.3-0.1l-6.1-6.6c-0.1-0.1-0.1-0.1-0.3-0.1c-0.1,0-0.1,0.1-0.1,0.3v4.2c0,2.4,1.6,1.6,1.6,2.1
			c0,0.1-0.3,0.1-0.5,0.1c-0.7,0-1.1,0-1.4,0c-0.4,0-0.8,0-1.1,0c-0.1,0-0.4,0-0.4-0.1c0-0.5,1.2-0.3,1.2-1.6V83.4z"/>
		<path id="XMLID_124_" class="st0" d="M148.4,80.9c2.5,0,4.3,1.6,4.3,4.2c0,1.7-0.8,4.9-4.7,4.9c-2.5,0-4.2-1.7-4.2-4.2
			C143.8,83,145.5,80.9,148.4,80.9z M148.4,89.5c2.1,0,2.9-1.7,2.9-3.8c0-2.8-1.6-4.2-3.2-4.2c-2.1,0-2.8,1.7-2.8,3.6
			C145.4,86.8,146.1,89.5,148.4,89.5z"/>
		<path id="XMLID_118_" class="st0" d="M160.6,88c0,0.8,0,1.2,0.9,1.2c3.2,0,2.9-1.7,3.4-1.7c0,0,0.1,0,0.1,0.3c0,0.9-0.8,2-1.7,2
			c-2,0-2.6,0-3.3,0c-0.4,0-0.9,0-1.6,0c-0.1,0-0.3,0-0.3-0.1c0-0.5,0.9,0.1,0.9-1.4v-5.9c0-1.1-1.4-0.8-1.4-1.2
			c0-0.1,0.1-0.3,0.4-0.3c0.5,0,1.2,0,1.7,0c1.1,0,1.2,0,1.4,0c0.3,0,0.3,0,0.3,0.1c0,0.5-0.9,0-0.9,0.9L160.6,88L160.6,88z"/>
		<path id="XMLID_113_" class="st0" d="M174.3,80.9c2.5,0,4.3,1.6,4.3,4.2c0,1.7-0.8,4.9-4.7,4.9c-2.5,0-4.2-1.7-4.2-4.2
			C169.7,83,171.4,80.9,174.3,80.9z M174.3,89.5c2.1,0,2.9-1.7,2.9-3.8c0-2.8-1.6-4.2-3.2-4.2c-2.1,0-2.8,1.7-2.8,3.6
			C171.3,86.8,172.1,89.5,174.3,89.5z"/>
		<path id="XMLID_111_" class="st0" d="M192.1,83.9c0,0.1-0.1,0.3-0.3,0.3c-0.3,0-0.3-2.8-3.6-2.8c-1.2,0-2.9,0.8-2.9,4
			c0,1.7,0.9,4,2.9,4c2.2,0,2.2-1.1,2.2-1.8c0-2-1.4-1.1-1.4-1.6c0-0.4,0.4-0.3,0.7-0.3c0.7,0,1.2,0,1.7,0c0.5,0,0.9,0,1.3,0
			c0,0,0.1,0,0.1,0.1c0,0.5-0.9-0.1-0.9,1.4c0,0.5,0,0.9,0,1.1c0,0.3,0,0.3-0.1,0.3c-1.2,0.7-2.6,1.2-4,1.2c-3.7,0-4.2-3.2-4.2-4.2
			c0-2.1,1.3-4.9,4.5-4.9c1.7,0,2.8,0.8,3.2,0.8c0.3,0,0.3-0.4,0.5-0.4c0.1,0,0.1,0.3,0.1,0.5v2.4C192,83.9,192.1,83.9,192.1,83.9z"
			/>
		<path id="XMLID_109_" class="st0" d="M198.9,82.1c-0.5-0.9-1.3-0.5-1.3-1.1c0-0.1,0.1-0.1,0.4-0.1s0.5,0,1.2,0c0.5,0,1.1,0,1.8,0
			c0.1,0,0.3,0.1,0.3,0.1c0,0.3-0.7,0.1-0.7,0.7c0,0.1,0,0.3,0.1,0.5l1.2,2.4c0.3,0.4,0.3,0.5,0.4,0.5c0.1,0,0.1-0.1,0.3-0.4
			l1.2-2.1C204,82.2,204,82,204,82c0-0.8-1.2-0.5-1.2-0.9c0-0.1,0.1-0.1,0.3-0.1c0.1,0,0.4,0,1.1,0c0.9,0,1.1,0,1.4,0
			c0.1,0,0.3,0,0.3,0.1c0,0.4-0.5,0.1-1.3,1.4l-1.7,3.2c-0.1,0.3-0.1,0.4-0.1,0.8v1.8c0,1.6,1.6,0.7,1.6,1.3c0,0.1-0.1,0.1-0.4,0.1
			c-0.1,0-0.3,0-1.8,0c-1.2,0-1.4,0-1.8,0c-0.3,0-0.4,0-0.4-0.1c0-0.5,1.3,0.1,1.3-1.4v-1.6c0-0.4,0-0.5-0.3-0.8L198.9,82.1z"/>
	</g>
</g>
</svg>
